<svg id="SvgjsSvg1001" width="1167.234375" height="1429.390625" xmlns="http://www.w3.org/2000/svg" version="1.1" xmlns:xlink="http://www.w3.org/1999/xlink" xmlns:svgjs="http://svgjs.com/svgjs"><defs id="SvgjsDefs1002"><marker id="SvgjsMarker1026" markerWidth="14" markerHeight="10" refX="10" refY="5" viewBox="0 0 14 10" orient="auto" markerUnits="userSpaceOnUse" stroke-dasharray="0,0"><path id="SvgjsPath1027" d="M0,0 L14,5 L0,10 L0,0" fill="#323232" stroke="#323232" stroke-width="1"></path></marker><marker id="SvgjsMarker1030" markerWidth="14" markerHeight="10" refX="10" refY="5" viewBox="0 0 14 10" orient="auto" markerUnits="userSpaceOnUse" stroke-dasharray="0,0"><path id="SvgjsPath1031" d="M0,0 L14,5 L0,10 L0,0" fill="#323232" stroke="#323232" stroke-width="1"></path></marker><marker id="SvgjsMarker1114" markerWidth="14" markerHeight="10" refX="10" refY="5" viewBox="0 0 14 10" orient="auto" markerUnits="userSpaceOnUse" stroke-dasharray="0,0"><path id="SvgjsPath1115" d="M0,0 L14,5 L0,10 L0,0" fill="#323232" stroke="#323232" stroke-width="1"></path></marker><marker id="SvgjsMarker1118" markerWidth="14" markerHeight="10" refX="10" refY="5" viewBox="0 0 14 10" orient="auto" markerUnits="userSpaceOnUse" stroke-dasharray="0,0"><path id="SvgjsPath1119" d="M0,0 L14,5 L0,10 L0,0" fill="#323232" stroke="#323232" stroke-width="1"></path></marker><marker id="SvgjsMarker1122" markerWidth="14" markerHeight="10" refX="10" refY="5" viewBox="0 0 14 10" orient="auto" markerUnits="userSpaceOnUse" stroke-dasharray="0,0"><path id="SvgjsPath1123" d="M0,0 L14,5 L0,10 L0,0" fill="#323232" stroke="#323232" stroke-width="1"></path></marker><marker id="SvgjsMarker1160" markerWidth="14" markerHeight="10" refX="10" refY="5" viewBox="0 0 14 10" orient="auto" markerUnits="userSpaceOnUse" stroke-dasharray="0,0"><path id="SvgjsPath1161" d="M0,0 L14,5 L0,10 L0,0" fill="#323232" stroke="#323232" stroke-width="1"></path></marker><marker id="SvgjsMarker1164" markerWidth="14" markerHeight="10" refX="10" refY="5" viewBox="0 0 14 10" orient="auto" markerUnits="userSpaceOnUse" stroke-dasharray="0,0"><path id="SvgjsPath1165" d="M0,0 L14,5 L0,10 L0,0" fill="#323232" stroke="#323232" stroke-width="1"></path></marker><marker id="SvgjsMarker1184" markerWidth="14" markerHeight="10" refX="10" refY="5" viewBox="0 0 14 10" orient="auto" markerUnits="userSpaceOnUse" stroke-dasharray="0,0"><path id="SvgjsPath1185" d="M0,0 L14,5 L0,10 L0,0" fill="#323232" stroke="#323232" stroke-width="1"></path></marker><marker id="SvgjsMarker1188" markerWidth="14" markerHeight="10" refX="10" refY="5" viewBox="0 0 14 10" orient="auto" markerUnits="userSpaceOnUse" stroke-dasharray="0,0"><path id="SvgjsPath1189" d="M0,0 L14,5 L0,10 L0,0" fill="#323232" stroke="#323232" stroke-width="1"></path></marker><marker id="SvgjsMarker1192" markerWidth="14" markerHeight="10" refX="10" refY="5" viewBox="0 0 14 10" orient="auto" markerUnits="userSpaceOnUse" stroke-dasharray="0,0"><path id="SvgjsPath1193" d="M0,0 L14,5 L0,10 L0,0" fill="#323232" stroke="#323232" stroke-width="1"></path></marker><marker id="SvgjsMarker1196" markerWidth="14" markerHeight="10" refX="10" refY="5" viewBox="0 0 14 10" orient="auto" markerUnits="userSpaceOnUse" stroke-dasharray="0,0"><path id="SvgjsPath1197" d="M0,0 L14,5 L0,10 L0,0" fill="#323232" stroke="#323232" stroke-width="1"></path></marker><marker id="SvgjsMarker1200" markerWidth="14" markerHeight="10" refX="10" refY="5" viewBox="0 0 14 10" orient="auto" markerUnits="userSpaceOnUse" stroke-dasharray="0,0"><path id="SvgjsPath1201" d="M0,0 L14,5 L0,10 L0,0" fill="#323232" stroke="#323232" stroke-width="1"></path></marker><marker id="SvgjsMarker1242" markerWidth="14" markerHeight="10" refX="10" refY="5" viewBox="0 0 14 10" orient="auto" markerUnits="userSpaceOnUse" stroke-dasharray="0,0"><path id="SvgjsPath1243" d="M0,0 L14,5 L0,10 L0,0" fill="#323232" stroke="#323232" stroke-width="1"></path></marker><marker id="SvgjsMarker1246" markerWidth="14" markerHeight="10" refX="10" refY="5" viewBox="0 0 14 10" orient="auto" markerUnits="userSpaceOnUse" stroke-dasharray="0,0"><path id="SvgjsPath1247" d="M0,0 L14,5 L0,10 L0,0" fill="#323232" stroke="#323232" stroke-width="1"></path></marker><marker id="SvgjsMarker1250" markerWidth="14" markerHeight="10" refX="10" refY="5" viewBox="0 0 14 10" orient="auto" markerUnits="userSpaceOnUse" stroke-dasharray="0,0"><path id="SvgjsPath1251" d="M0,0 L14,5 L0,10 L0,0" fill="#323232" stroke="#323232" stroke-width="1"></path></marker><marker id="SvgjsMarker1254" markerWidth="14" markerHeight="10" refX="10" refY="5" viewBox="0 0 14 10" orient="auto" markerUnits="userSpaceOnUse" stroke-dasharray="0,0"><path id="SvgjsPath1255" d="M0,0 L14,5 L0,10 L0,0" fill="#323232" stroke="#323232" stroke-width="1"></path></marker><marker id="SvgjsMarker1274" markerWidth="14" markerHeight="10" refX="10" refY="5" viewBox="0 0 14 10" orient="auto" markerUnits="userSpaceOnUse" stroke-dasharray="0,0"><path id="SvgjsPath1275" d="M0,0 L14,5 L0,10 L0,0" fill="#323232" stroke="#323232" stroke-width="1"></path></marker><marker id="SvgjsMarker1278" markerWidth="14" markerHeight="10" refX="10" refY="5" viewBox="0 0 14 10" orient="auto" markerUnits="userSpaceOnUse" stroke-dasharray="0,0"><path id="SvgjsPath1279" d="M0,0 L14,5 L0,10 L0,0" fill="#323232" stroke="#323232" stroke-width="1"></path></marker><marker id="SvgjsMarker1282" markerWidth="14" markerHeight="10" refX="10" refY="5" viewBox="0 0 14 10" orient="auto" markerUnits="userSpaceOnUse" stroke-dasharray="0,0"><path id="SvgjsPath1283" d="M0,0 L14,5 L0,10 L0,0" fill="#323232" stroke="#323232" stroke-width="1"></path></marker><marker id="SvgjsMarker1292" markerWidth="14" markerHeight="10" refX="10" refY="5" viewBox="0 0 14 10" orient="auto" markerUnits="userSpaceOnUse" stroke-dasharray="0,0"><path id="SvgjsPath1293" d="M0,0 L14,5 L0,10 L0,0" fill="#323232" stroke="#323232" stroke-width="1"></path></marker><marker id="SvgjsMarker1318" markerWidth="14" markerHeight="10" refX="10" refY="5" viewBox="0 0 14 10" orient="auto" markerUnits="userSpaceOnUse" stroke-dasharray="0,0"><path id="SvgjsPath1319" d="M0,0 L14,5 L0,10 L0,0" fill="#323232" stroke="#323232" stroke-width="1"></path></marker><marker id="SvgjsMarker1322" markerWidth="14" markerHeight="10" refX="10" refY="5" viewBox="0 0 14 10" orient="auto" markerUnits="userSpaceOnUse" stroke-dasharray="0,0"><path id="SvgjsPath1323" d="M0,0 L14,5 L0,10 L0,0" fill="#323232" stroke="#323232" stroke-width="1"></path></marker><marker id="SvgjsMarker1326" markerWidth="14" markerHeight="10" refX="10" refY="5" viewBox="0 0 14 10" orient="auto" markerUnits="userSpaceOnUse" stroke-dasharray="0,0"><path id="SvgjsPath1327" d="M0,0 L14,5 L0,10 L0,0" fill="#323232" stroke="#323232" stroke-width="1"></path></marker><marker id="SvgjsMarker1346" markerWidth="14" markerHeight="10" refX="10" refY="5" viewBox="0 0 14 10" orient="auto" markerUnits="userSpaceOnUse" stroke-dasharray="0,0"><path id="SvgjsPath1347" d="M0,0 L14,5 L0,10 L0,0" fill="#323232" stroke="#323232" stroke-width="1"></path></marker></defs><g id="SvgjsG1008" transform="translate(25.000253530649054,25.000000000000043)"><path id="SvgjsPath1009" d="M 0 4Q 0 0 4 0L 211.4294339693509 0Q 215.4294339693509 0 215.4294339693509 4L 215.4294339693509 82.99999999999996Q 215.4294339693509 86.99999999999996 211.4294339693509 86.99999999999996L 4 86.99999999999996Q 0 86.99999999999996 0 82.99999999999996Z" stroke="rgba(33,41,48,1)" stroke-width="2" fill-opacity="1" fill="#ffffff"></path><path id="SvgjsPath1010" d="M 0 30L 215.4294339693509 30M 0 60L 215.4294339693509 60" stroke="rgba(33,41,48,1)" stroke-width="2" fill="none"></path><path id="SvgjsPath1011" d="M 0 0L 215.4294339693509 0L 215.4294339693509 86.99999999999996L 0 86.99999999999996Z" stroke="none" fill="none"></path><g id="SvgjsG1012"><text id="SvgjsText1013" font-family="微软雅黑" text-anchor="middle" font-size="13px" width="196px" fill="#323232" font-weight="700" align="middle" lineHeight="125%" anchor="middle" family="微软雅黑" size="13px" weight="700" font-style="" opacity="1" y="4.375" transform="rotate(0)"><tspan id="SvgjsTspan1014" dy="16" x="108"><tspan id="SvgjsTspan1015" style="text-decoration:;">person(对象) = new Person()</tspan></tspan></text></g><g id="SvgjsG1016"><text id="SvgjsText1017" font-family="微软雅黑" text-anchor="start" font-size="13px" width="196px" fill="#323232" font-weight="400" align="middle" lineHeight="125%" anchor="start" family="微软雅黑" size="13px" weight="400" font-style="" opacity="1" y="34.375" transform="rotate(0)"><tspan id="SvgjsTspan1018" dy="16" x="10"><tspan id="SvgjsTspan1019" style="text-decoration:;">constructor</tspan></tspan></text></g><g id="SvgjsG1020"><text id="SvgjsText1021" font-family="微软雅黑" text-anchor="start" font-size="13px" width="196px" fill="#323232" font-weight="400" align="middle" lineHeight="125%" anchor="start" family="微软雅黑" size="13px" weight="400" font-style="" opacity="1" y="64.375" transform="rotate(0)"><tspan id="SvgjsTspan1022" dy="16" x="10"><tspan id="SvgjsTspan1023" style="text-decoration:;">__proto__</tspan></tspan></text></g></g><g id="SvgjsG1024"><path id="SvgjsPath1025" d="M241.42968749999994 94.59999999999998L272.11328125 94.59999999999998L272.11328125 170.09375000000003L300.1968750000001 170.09375000000003" stroke="#323232" stroke-width="2" fill="none" marker-end="url(#SvgjsMarker1026)"></path></g><g id="SvgjsG1028"><path id="SvgjsPath1029" d="M241.42968749999994 68.5L373.60937499999994 68.5L373.60937499999994 121.24375000000006" stroke="#323232" stroke-width="2" fill="none" marker-end="url(#SvgjsMarker1030)"></path></g><g id="SvgjsG1032" transform="translate(491.4805145263672,203.5937499999999)"><path id="SvgjsPath1033" d="M 0 4Q 0 0 4 0L 135.62499999999966 0Q 139.62499999999966 0 139.62499999999966 4L 139.62499999999966 86.49999999999989Q 139.62499999999966 90.49999999999989 135.62499999999966 90.49999999999989L 4 90.49999999999989Q 0 90.49999999999989 0 86.49999999999989Z" stroke="rgba(33,41,48,1)" stroke-width="2" fill-opacity="1" fill="#ffffff"></path><path id="SvgjsPath1034" d="M 0 30L 139.62499999999966 30M 0 60L 139.62499999999966 60" stroke="rgba(33,41,48,1)" stroke-width="2" fill="none"></path><path id="SvgjsPath1035" d="M 0 0L 139.62499999999966 0L 139.62499999999966 90.49999999999989L 0 90.49999999999989Z" stroke="none" fill="none"></path><g id="SvgjsG1036"><text id="SvgjsText1037" font-family="微软雅黑" text-anchor="middle" font-size="13px" width="120px" fill="#323232" font-weight="700" align="middle" lineHeight="125%" anchor="middle" family="微软雅黑" size="13px" weight="700" font-style="" opacity="1" y="4.375" transform="rotate(0)"><tspan id="SvgjsTspan1038" dy="16" x="70"><tspan id="SvgjsTspan1039" style="text-decoration:;">Person.Prototype</tspan></tspan></text></g><g id="SvgjsG1040"><text id="SvgjsText1041" font-family="微软雅黑" text-anchor="start" font-size="13px" width="120px" fill="#323232" font-weight="400" align="middle" lineHeight="125%" anchor="start" family="微软雅黑" size="13px" weight="400" font-style="" opacity="1" y="34.375" transform="rotate(0)"><tspan id="SvgjsTspan1042" dy="16" x="10"><tspan id="SvgjsTspan1043" style="text-decoration:;">constructor</tspan></tspan></text></g><g id="SvgjsG1044"><text id="SvgjsText1045" font-family="微软雅黑" text-anchor="start" font-size="13px" width="120px" fill="#323232" font-weight="400" align="middle" lineHeight="125%" anchor="start" family="微软雅黑" size="13px" weight="400" font-style="" opacity="1" y="64.375" transform="rotate(0)"><tspan id="SvgjsTspan1046" dy="16" x="10"><tspan id="SvgjsTspan1047" style="text-decoration:;">__proto__</tspan></tspan></text></g></g><g id="SvgjsG1048" transform="translate(303.7968750000001,124.84375000000006)"><path id="SvgjsPath1049" d="M 0 4Q 0 0 4 0L 135.62499999999966 0Q 139.62499999999966 0 139.62499999999966 4L 139.62499999999966 86.49999999999989Q 139.62499999999966 90.49999999999989 135.62499999999966 90.49999999999989L 4 90.49999999999989Q 0 90.49999999999989 0 86.49999999999989Z" stroke="rgba(33,41,48,1)" stroke-width="2" fill-opacity="1" fill="#ffffff"></path><path id="SvgjsPath1050" d="M 0 30L 139.62499999999966 30M 0 60L 139.62499999999966 60" stroke="rgba(33,41,48,1)" stroke-width="2" fill="none"></path><path id="SvgjsPath1051" d="M 0 0L 139.62499999999966 0L 139.62499999999966 90.49999999999989L 0 90.49999999999989Z" stroke="none" fill="none"></path><g id="SvgjsG1052"><text id="SvgjsText1053" font-family="微软雅黑" text-anchor="middle" font-size="13px" width="120px" fill="#323232" font-weight="700" align="middle" lineHeight="125%" anchor="middle" family="微软雅黑" size="13px" weight="700" font-style="" opacity="1" y="4.375" transform="rotate(0)"><tspan id="SvgjsTspan1054" dy="16" x="70"><tspan id="SvgjsTspan1055" style="text-decoration:;">Person(构造函数)</tspan></tspan></text></g><g id="SvgjsG1056"><text id="SvgjsText1057" font-family="微软雅黑" text-anchor="start" font-size="13px" width="120px" fill="#323232" font-weight="400" align="middle" lineHeight="125%" anchor="start" family="微软雅黑" size="13px" weight="400" font-style="" opacity="1" y="34.375" transform="rotate(0)"><tspan id="SvgjsTspan1058" dy="16" x="10"><tspan id="SvgjsTspan1059" style="text-decoration:;">prototype</tspan></tspan></text></g><g id="SvgjsG1060"><text id="SvgjsText1061" font-family="微软雅黑" text-anchor="start" font-size="13px" width="120px" fill="#323232" font-weight="400" align="middle" lineHeight="125%" anchor="start" family="微软雅黑" size="13px" weight="400" font-style="" opacity="1" y="64.375" transform="rotate(0)"><tspan id="SvgjsTspan1062" dy="16" x="10"><tspan id="SvgjsTspan1063" style="text-decoration:;">__proto__</tspan></tspan></text></g></g><g id="SvgjsG1064" transform="translate(225.58654964462846,906.1565915896341)"><path id="SvgjsPath1065" d="M 0 4Q 0 0 4 0L 135.62499999999966 0Q 139.62499999999966 0 139.62499999999966 4L 139.62499999999966 86.49999999999989Q 139.62499999999966 90.49999999999989 135.62499999999966 90.49999999999989L 4 90.49999999999989Q 0 90.49999999999989 0 86.49999999999989Z" stroke="rgba(33,41,48,1)" stroke-width="2" fill-opacity="1" fill="#ffffff"></path><path id="SvgjsPath1066" d="M 0 30L 139.62499999999966 30M 0 60L 139.62499999999966 60" stroke="rgba(33,41,48,1)" stroke-width="2" fill="none"></path><path id="SvgjsPath1067" d="M 0 0L 139.62499999999966 0L 139.62499999999966 90.49999999999989L 0 90.49999999999989Z" stroke="none" fill="none"></path><g id="SvgjsG1068"><text id="SvgjsText1069" font-family="微软雅黑" text-anchor="middle" font-size="13px" width="120px" fill="#323232" font-weight="700" align="middle" lineHeight="125%" anchor="middle" family="微软雅黑" size="13px" weight="700" font-style="" opacity="1" y="4.375" transform="rotate(0)"><tspan id="SvgjsTspan1070" dy="16" x="70"><tspan id="SvgjsTspan1071" style="text-decoration:;">Function(构造函数)</tspan></tspan></text></g><g id="SvgjsG1072"><text id="SvgjsText1073" font-family="微软雅黑" text-anchor="start" font-size="13px" width="120px" fill="#323232" font-weight="400" align="middle" lineHeight="125%" anchor="start" family="微软雅黑" size="13px" weight="400" font-style="" opacity="1" y="34.375" transform="rotate(0)"><tspan id="SvgjsTspan1074" dy="16" x="10"><tspan id="SvgjsTspan1075" style="text-decoration:;">prototype</tspan></tspan></text></g><g id="SvgjsG1076"><text id="SvgjsText1077" font-family="微软雅黑" text-anchor="start" font-size="13px" width="120px" fill="#323232" font-weight="400" align="middle" lineHeight="125%" anchor="start" family="微软雅黑" size="13px" weight="400" font-style="" opacity="1" y="64.375" transform="rotate(0)"><tspan id="SvgjsTspan1078" dy="16" x="10"><tspan id="SvgjsTspan1079" style="text-decoration:;">__proto__</tspan></tspan></text></g></g><g id="SvgjsG1080" transform="translate(25.000253530649054,685.0480769230769)"><path id="SvgjsPath1081" d="M 0 4Q 0 0 4 0L 135.62499999999966 0Q 139.62499999999966 0 139.62499999999966 4L 139.62499999999966 86.49999999999989Q 139.62499999999966 90.49999999999989 135.62499999999966 90.49999999999989L 4 90.49999999999989Q 0 90.49999999999989 0 86.49999999999989Z" stroke="rgba(33,41,48,1)" stroke-width="2" fill-opacity="1" fill="#ffffff"></path><path id="SvgjsPath1082" d="M 0 30L 139.62499999999966 30M 0 60L 139.62499999999966 60" stroke="rgba(33,41,48,1)" stroke-width="2" fill="none"></path><path id="SvgjsPath1083" d="M 0 0L 139.62499999999966 0L 139.62499999999966 90.49999999999989L 0 90.49999999999989Z" stroke="none" fill="none"></path><g id="SvgjsG1084"><text id="SvgjsText1085" font-family="微软雅黑" text-anchor="middle" font-size="13px" width="120px" fill="#323232" font-weight="700" align="middle" lineHeight="125%" anchor="middle" family="微软雅黑" size="13px" weight="700" font-style="" opacity="1" y="4.375" transform="rotate(0)"><tspan id="SvgjsTspan1086" dy="16" x="70"><tspan id="SvgjsTspan1087" style="text-decoration:;">fun() (一个函数)</tspan></tspan></text></g><g id="SvgjsG1088"><text id="SvgjsText1089" font-family="微软雅黑" text-anchor="start" font-size="13px" width="120px" fill="#323232" font-weight="400" align="middle" lineHeight="125%" anchor="start" family="微软雅黑" size="13px" weight="400" font-style="" opacity="1" y="34.375" transform="rotate(0)"><tspan id="SvgjsTspan1090" dy="16" x="10"><tspan id="SvgjsTspan1091" style="text-decoration:;">prototype</tspan></tspan></text></g><g id="SvgjsG1092"><text id="SvgjsText1093" font-family="微软雅黑" text-anchor="start" font-size="13px" width="120px" fill="#323232" font-weight="400" align="middle" lineHeight="125%" anchor="start" family="微软雅黑" size="13px" weight="400" font-style="" opacity="1" y="64.375" transform="rotate(0)"><tspan id="SvgjsTspan1094" dy="16" x="10"><tspan id="SvgjsTspan1095" style="text-decoration:;">__proto__</tspan></tspan></text></g></g><g id="SvgjsG1096" transform="translate(263.12525353064905,755.5363581730769)"><path id="SvgjsPath1097" d="M 0 4Q 0 0 4 0L 135.62499999999966 0Q 139.62499999999966 0 139.62499999999966 4L 139.62499999999966 86.49999999999989Q 139.62499999999966 90.49999999999989 135.62499999999966 90.49999999999989L 4 90.49999999999989Q 0 90.49999999999989 0 86.49999999999989Z" stroke="rgba(33,41,48,1)" stroke-width="2" fill-opacity="1" fill="#ffffff"></path><path id="SvgjsPath1098" d="M 0 30L 139.62499999999966 30M 0 60L 139.62499999999966 60" stroke="rgba(33,41,48,1)" stroke-width="2" fill="none"></path><path id="SvgjsPath1099" d="M 0 0L 139.62499999999966 0L 139.62499999999966 90.49999999999989L 0 90.49999999999989Z" stroke="none" fill="none"></path><g id="SvgjsG1100"><text id="SvgjsText1101" font-family="微软雅黑" text-anchor="middle" font-size="13px" width="120px" fill="#323232" font-weight="700" align="middle" lineHeight="125%" anchor="middle" family="微软雅黑" size="13px" weight="700" font-style="" opacity="1" y="4.375" transform="rotate(0)"><tspan id="SvgjsTspan1102" dy="16" x="70"><tspan id="SvgjsTspan1103" style="text-decoration:;">fun.prototype</tspan></tspan></text></g><g id="SvgjsG1104"><text id="SvgjsText1105" font-family="微软雅黑" text-anchor="start" font-size="13px" width="120px" fill="#323232" font-weight="400" align="middle" lineHeight="125%" anchor="start" family="微软雅黑" size="13px" weight="400" font-style="" opacity="1" y="34.375" transform="rotate(0)"><tspan id="SvgjsTspan1106" dy="16" x="10"><tspan id="SvgjsTspan1107" style="text-decoration:;">constructor</tspan></tspan></text></g><g id="SvgjsG1108"><text id="SvgjsText1109" font-family="微软雅黑" text-anchor="start" font-size="13px" width="120px" fill="#323232" font-weight="400" align="middle" lineHeight="125%" anchor="start" family="微软雅黑" size="13px" weight="400" font-style="" opacity="1" y="64.375" transform="rotate(0)"><tspan id="SvgjsTspan1110" dy="16" x="10"><tspan id="SvgjsTspan1111" style="text-decoration:;">__proto__</tspan></tspan></text></g></g><g id="SvgjsG1112"><path id="SvgjsPath1113" d="M165.62525353064873 730.298076923077L332.9377535306489 730.298076923077L332.9377535306489 751.9363581730769" stroke="#323232" stroke-width="2" fill="none" marker-end="url(#SvgjsMarker1114)"></path></g><g id="SvgjsG1116"><path id="SvgjsPath1117" d="M403.7502535306487 800.7863581730769L432.7502535306487 800.7863581730769L432.7502535306487 702.4230769230767L167.93533653846148 702.4230769230767" stroke="#323232" stroke-width="2" fill="none" marker-end="url(#SvgjsMarker1118)"></path></g><g id="SvgjsG1120"><path id="SvgjsPath1121" d="M403.4603365384615 831.8176081730768L446.6944298320793 831.8176081730768L446.6944298320793 831.872246245925L487.3285231256971 831.872246245925" stroke="#323232" stroke-width="2" fill="none" marker-end="url(#SvgjsMarker1122)"></path></g><g id="SvgjsG1124" transform="translate(490.9285231256971,786.6222462459251)"><path id="SvgjsPath1125" d="M 0 4Q 0 0 4 0L 135.62499999999966 0Q 139.62499999999966 0 139.62499999999966 4L 139.62499999999966 86.49999999999989Q 139.62499999999966 90.49999999999989 135.62499999999966 90.49999999999989L 4 90.49999999999989Q 0 90.49999999999989 0 86.49999999999989Z" stroke="rgba(33,41,48,1)" stroke-width="2" fill-opacity="1" fill="#ffffff"></path><path id="SvgjsPath1126" d="M 0 30L 139.62499999999966 30M 0 60L 139.62499999999966 60" stroke="rgba(33,41,48,1)" stroke-width="2" fill="none"></path><path id="SvgjsPath1127" d="M 0 0L 139.62499999999966 0L 139.62499999999966 90.49999999999989L 0 90.49999999999989Z" stroke="none" fill="none"></path><g id="SvgjsG1128"><text id="SvgjsText1129" font-family="微软雅黑" text-anchor="middle" font-size="13px" width="120px" fill="#323232" font-weight="700" align="middle" lineHeight="125%" anchor="middle" family="微软雅黑" size="13px" weight="700" font-style="" opacity="1" y="4.375" transform="rotate(0)"><tspan id="SvgjsTspan1130" dy="16" x="70"><tspan id="SvgjsTspan1131" style="text-decoration:;">Object(构造函数)</tspan></tspan></text></g><g id="SvgjsG1132"><text id="SvgjsText1133" font-family="微软雅黑" text-anchor="start" font-size="13px" width="120px" fill="#323232" font-weight="400" align="middle" lineHeight="125%" anchor="start" family="微软雅黑" size="13px" weight="400" font-style="" opacity="1" y="34.375" transform="rotate(0)"><tspan id="SvgjsTspan1134" dy="16" x="10"><tspan id="SvgjsTspan1135" style="text-decoration:;">prototype</tspan></tspan></text></g><g id="SvgjsG1136"><text id="SvgjsText1137" font-family="微软雅黑" text-anchor="start" font-size="13px" width="120px" fill="#323232" font-weight="400" align="middle" lineHeight="125%" anchor="start" family="微软雅黑" size="13px" weight="400" font-style="" opacity="1" y="64.375" transform="rotate(0)"><tspan id="SvgjsTspan1138" dy="16" x="10"><tspan id="SvgjsTspan1139" style="text-decoration:;">__proto__</tspan></tspan></text></g></g><g id="SvgjsG1140" transform="translate(351.4343389688754,1023.6418269230765)"><path id="SvgjsPath1141" d="M 0 4Q 0 0 4 0L 135.62499999999966 0Q 139.62499999999966 0 139.62499999999966 4L 139.62499999999966 86.49999999999989Q 139.62499999999966 90.49999999999989 135.62499999999966 90.49999999999989L 4 90.49999999999989Q 0 90.49999999999989 0 86.49999999999989Z" stroke="rgba(33,41,48,1)" stroke-width="2" fill-opacity="1" fill="#ffffff"></path><path id="SvgjsPath1142" d="M 0 30L 139.62499999999966 30M 0 60L 139.62499999999966 60" stroke="rgba(33,41,48,1)" stroke-width="2" fill="none"></path><path id="SvgjsPath1143" d="M 0 0L 139.62499999999966 0L 139.62499999999966 90.49999999999989L 0 90.49999999999989Z" stroke="none" fill="none"></path><g id="SvgjsG1144"><text id="SvgjsText1145" font-family="微软雅黑" text-anchor="middle" font-size="13px" width="120px" fill="#323232" font-weight="700" align="middle" lineHeight="125%" anchor="middle" family="微软雅黑" size="13px" weight="700" font-style="" opacity="1" y="-4.125" transform="rotate(0)"><tspan id="SvgjsTspan1146" dy="16" x="70"><tspan id="SvgjsTspan1147" style="text-decoration:;">Function.prototyp</tspan></tspan><tspan id="SvgjsTspan1148" dy="16" x="70"><tspan id="SvgjsTspan1149" style="text-decoration:;">e</tspan></tspan></text></g><g id="SvgjsG1150"><text id="SvgjsText1151" font-family="微软雅黑" text-anchor="start" font-size="13px" width="120px" fill="#323232" font-weight="400" align="middle" lineHeight="125%" anchor="start" family="微软雅黑" size="13px" weight="400" font-style="" opacity="1" y="34.375" transform="rotate(0)"><tspan id="SvgjsTspan1152" dy="16" x="10"><tspan id="SvgjsTspan1153" style="text-decoration:;">constructor</tspan></tspan></text></g><g id="SvgjsG1154"><text id="SvgjsText1155" font-family="微软雅黑" text-anchor="start" font-size="13px" width="120px" fill="#323232" font-weight="400" align="middle" lineHeight="125%" anchor="start" family="微软雅黑" size="13px" weight="400" font-style="" opacity="1" y="64.375" transform="rotate(0)"><tspan id="SvgjsTspan1156" dy="16" x="10"><tspan id="SvgjsTspan1157" style="text-decoration:;">__proto__</tspan></tspan></text></g></g><g id="SvgjsG1158"><path id="SvgjsPath1159" d="M366.21154964462795 951.406591589634L421.24683896887507 951.406591589634L421.24683896887507 1020.0418269230765" stroke="#323232" stroke-width="2" fill="none" marker-end="url(#SvgjsMarker1160)"></path></g><g id="SvgjsG1162"><path id="SvgjsPath1163" d="M492.0593389688744 1068.8918269230762L521.0593389688744 1068.8918269230762L521.0593389688744 925.2134153201027L368.3136652993873 925.2134153201027" stroke="#323232" stroke-width="2" fill="none" marker-end="url(#SvgjsMarker1164)"></path></g><g id="SvgjsG1166" transform="translate(653.9478947719695,1237.2438409236756)"><path id="SvgjsPath1167" d="M 0 4Q 0 0 4 0L 135.62499999999966 0Q 139.62499999999966 0 139.62499999999966 4L 139.62499999999966 86.49999999999989Q 139.62499999999966 90.49999999999989 135.62499999999966 90.49999999999989L 4 90.49999999999989Q 0 90.49999999999989 0 86.49999999999989Z" stroke="rgba(33,41,48,1)" stroke-width="2" fill-opacity="1" fill="#ffffff"></path><path id="SvgjsPath1168" d="M 0 30L 139.62499999999966 30M 0 60L 139.62499999999966 60" stroke="rgba(33,41,48,1)" stroke-width="2" fill="none"></path><path id="SvgjsPath1169" d="M 0 0L 139.62499999999966 0L 139.62499999999966 90.49999999999989L 0 90.49999999999989Z" stroke="none" fill="none"></path><g id="SvgjsG1170"><text id="SvgjsText1171" font-family="微软雅黑" text-anchor="middle" font-size="13px" width="120px" fill="#323232" font-weight="700" align="middle" lineHeight="125%" anchor="middle" family="微软雅黑" size="13px" weight="700" font-style="" opacity="1" y="4.375" transform="rotate(0)"><tspan id="SvgjsTspan1172" dy="16" x="70"><tspan id="SvgjsTspan1173" style="text-decoration:;">Object.prototype</tspan></tspan></text></g><g id="SvgjsG1174"><text id="SvgjsText1175" font-family="微软雅黑" text-anchor="start" font-size="13px" width="120px" fill="#323232" font-weight="400" align="middle" lineHeight="125%" anchor="start" family="微软雅黑" size="13px" weight="400" font-style="" opacity="1" y="34.375" transform="rotate(0)"><tspan id="SvgjsTspan1176" dy="16" x="10"><tspan id="SvgjsTspan1177" style="text-decoration:;">constructor</tspan></tspan></text></g><g id="SvgjsG1178"><text id="SvgjsText1179" font-family="微软雅黑" text-anchor="start" font-size="13px" width="120px" fill="#323232" font-weight="400" align="middle" lineHeight="125%" anchor="start" family="微软雅黑" size="13px" weight="400" font-style="" opacity="1" y="64.375" transform="rotate(0)"><tspan id="SvgjsTspan1180" dy="16" x="10"><tspan id="SvgjsTspan1181" style="text-decoration:;">__proto__</tspan></tspan></text></g></g><g id="SvgjsG1182"><path id="SvgjsPath1183" d="M165.3353365384615 759.2980769230768L194.96094309154498 759.2980769230768L194.96094309154498 951.406591589634L221.98654964462847 951.406591589634" stroke="#323232" stroke-width="2" fill="none" marker-end="url(#SvgjsMarker1184)"></path></g><g id="SvgjsG1186"><path id="SvgjsPath1187" d="M366.02484301516273 980.2134153201034L395.56145462363446 980.2134153201034L395.56145462363446 1020.0730769230765" stroke="#323232" stroke-width="2" fill="none" marker-end="url(#SvgjsMarker1188)"></path></g><g id="SvgjsG1190"><path id="SvgjsPath1191" d="M444.4218749999998 170.09375L561.2930145263671 170.09375L561.2930145263671 199.9937499999999" stroke="#323232" stroke-width="2" fill="none" marker-end="url(#SvgjsMarker1192)"></path></g><g id="SvgjsG1194"><path id="SvgjsPath1195" d="M632.1055145263668 248.84374999999983L661.1055145263668 248.84374999999983L661.1055145263668 139.87499999999994L446.39687499999985 139.87499999999994" stroke="#323232" stroke-width="2" fill="none" marker-end="url(#SvgjsMarker1196)"></path></g><g id="SvgjsG1198"><path id="SvgjsPath1199" d="M631.9218749999998 279.2499999999999L658.6527243217382 279.2499999999999L658.6527243217382 337.21044921874983L682.7835736434766 337.21044921874983" stroke="#323232" stroke-width="2" fill="none" marker-end="url(#SvgjsMarker1200)"></path></g><g id="SvgjsG1202" transform="translate(686.3835736434767,291.9604492187499)"><path id="SvgjsPath1203" d="M 0 4Q 0 0 4 0L 135.62499999999966 0Q 139.62499999999966 0 139.62499999999966 4L 139.62499999999966 86.49999999999989Q 139.62499999999966 90.49999999999989 135.62499999999966 90.49999999999989L 4 90.49999999999989Q 0 90.49999999999989 0 86.49999999999989Z" stroke="rgba(33,41,48,1)" stroke-width="2" fill-opacity="1" fill="#ffffff"></path><path id="SvgjsPath1204" d="M 0 30L 139.62499999999966 30M 0 60L 139.62499999999966 60" stroke="rgba(33,41,48,1)" stroke-width="2" fill="none"></path><path id="SvgjsPath1205" d="M 0 0L 139.62499999999966 0L 139.62499999999966 90.49999999999989L 0 90.49999999999989Z" stroke="none" fill="none"></path><g id="SvgjsG1206"><text id="SvgjsText1207" font-family="微软雅黑" text-anchor="middle" font-size="13px" width="120px" fill="#323232" font-weight="700" align="middle" lineHeight="125%" anchor="middle" family="微软雅黑" size="13px" weight="700" font-style="" opacity="1" y="4.375" transform="rotate(0)"><tspan id="SvgjsTspan1208" dy="16" x="70"><tspan id="SvgjsTspan1209" style="text-decoration:;">Object(构造函数)</tspan></tspan></text></g><g id="SvgjsG1210"><text id="SvgjsText1211" font-family="微软雅黑" text-anchor="start" font-size="13px" width="120px" fill="#323232" font-weight="400" align="middle" lineHeight="125%" anchor="start" family="微软雅黑" size="13px" weight="400" font-style="" opacity="1" y="34.375" transform="rotate(0)"><tspan id="SvgjsTspan1212" dy="16" x="10"><tspan id="SvgjsTspan1213" style="text-decoration:;">prototype</tspan></tspan></text></g><g id="SvgjsG1214"><text id="SvgjsText1215" font-family="微软雅黑" text-anchor="start" font-size="13px" width="120px" fill="#323232" font-weight="400" align="middle" lineHeight="125%" anchor="start" family="微软雅黑" size="13px" weight="400" font-style="" opacity="1" y="64.375" transform="rotate(0)"><tspan id="SvgjsTspan1216" dy="16" x="10"><tspan id="SvgjsTspan1217" style="text-decoration:;">__proto__</tspan></tspan></text></g></g><g id="SvgjsG1218" transform="translate(1071.2496167086056,481.03004932403553)"><path id="SvgjsPath1219" d="M 0 4Q 0 0 4 0L 66.625 0Q 70.625 0 70.625 4L 70.625 37.25Q 70.625 41.25 66.625 41.25L 4 41.25Q 0 41.25 0 37.25Z" stroke="rgba(33,41,48,1)" stroke-width="2" fill-opacity="1" fill="#ffffff"></path><g id="SvgjsG1220"><text id="SvgjsText1221" font-family="微软雅黑" text-anchor="middle" font-size="13px" width="51px" fill="#323232" font-weight="400" align="middle" lineHeight="125%" anchor="middle" family="微软雅黑" size="13px" weight="400" font-style="" opacity="1" y="10" transform="rotate(0)"><tspan id="SvgjsTspan1222" dy="16" x="35.5"><tspan id="SvgjsTspan1223" style="text-decoration:;">null</tspan></tspan></text></g></g><g id="SvgjsG1224" transform="translate(894.7026367187492,376.0289916992185)"><path id="SvgjsPath1225" d="M 0 4Q 0 0 4 0L 146.3749999999999 0Q 150.3749999999999 0 150.3749999999999 4L 150.3749999999999 88.24999999999989Q 150.3749999999999 92.24999999999989 146.3749999999999 92.24999999999989L 4 92.24999999999989Q 0 92.24999999999989 0 88.24999999999989Z" stroke="rgba(33,41,48,1)" stroke-width="2" fill-opacity="1" fill="#ffffff"></path><path id="SvgjsPath1226" d="M 0 30L 150.3749999999999 30M 0 60L 150.3749999999999 60" stroke="rgba(33,41,48,1)" stroke-width="2" fill="none"></path><path id="SvgjsPath1227" d="M 0 0L 150.3749999999999 0L 150.3749999999999 92.24999999999989L 0 92.24999999999989Z" stroke="none" fill="none"></path><g id="SvgjsG1228"><text id="SvgjsText1229" font-family="微软雅黑" text-anchor="middle" font-size="13px" width="131px" fill="#323232" font-weight="700" align="middle" lineHeight="125%" anchor="middle" family="微软雅黑" size="13px" weight="700" font-style="" opacity="1" y="4.375" transform="rotate(0)"><tspan id="SvgjsTspan1230" dy="16" x="75.5"><tspan id="SvgjsTspan1231" style="text-decoration:;">Object.prototype</tspan></tspan></text></g><g id="SvgjsG1232"><text id="SvgjsText1233" font-family="微软雅黑" text-anchor="start" font-size="13px" width="131px" fill="#323232" font-weight="400" align="middle" lineHeight="125%" anchor="start" family="微软雅黑" size="13px" weight="400" font-style="" opacity="1" y="34.375" transform="rotate(0)"><tspan id="SvgjsTspan1234" dy="16" x="10"><tspan id="SvgjsTspan1235" style="text-decoration:;">constructor</tspan></tspan></text></g><g id="SvgjsG1236"><text id="SvgjsText1237" font-family="微软雅黑" text-anchor="start" font-size="13px" width="131px" fill="#323232" font-weight="400" align="middle" lineHeight="125%" anchor="start" family="微软雅黑" size="13px" weight="400" font-style="" opacity="1" y="64.375" transform="rotate(0)"><tspan id="SvgjsTspan1238" dy="16" x="10"><tspan id="SvgjsTspan1239" style="text-decoration:;">__proto__</tspan></tspan></text></g></g><g id="SvgjsG1240"><path id="SvgjsPath1241" d="M827.0085736434763 337.21044921874983L969.8901367187493 337.21044921874983L969.8901367187493 372.4289916992185" stroke="#323232" stroke-width="2" fill="none" marker-end="url(#SvgjsMarker1242)"></path></g><g id="SvgjsG1244"><path id="SvgjsPath1245" d="M1046.077636718749 422.1539916992185L1075.077636718749 422.1539916992185L1075.077636718749 305.74169921875L829.0448376815622 305.74169921875" stroke="#323232" stroke-width="2" fill="none" marker-end="url(#SvgjsMarker1246)"></path></g><g id="SvgjsG1248"><path id="SvgjsPath1249" d="M1045.7968749999995 453.2789916992185L1106.5621167086056 453.2789916992185L1106.5621167086056 477.4300493240355" stroke="#323232" stroke-width="2" fill="none" marker-end="url(#SvgjsMarker1250)"></path></g><g id="SvgjsG1252"><path id="SvgjsPath1253" d="M1106.5621167086056 480.03004932403553L1106.5621167086056 451.03004932403553L1106.5621167086056 451.03004932403553L1106.5621167086056 477.4300493240355" stroke="#323232" stroke-width="2" fill="none" marker-end="url(#SvgjsMarker1254)"></path></g><g id="SvgjsG1256" transform="translate(553.8354967204002,1117.2472462459248)"><path id="SvgjsPath1257" d="M 0 4Q 0 0 4 0L 135.62499999999966 0Q 139.62499999999966 0 139.62499999999966 4L 139.62499999999966 86.49999999999989Q 139.62499999999966 90.49999999999989 135.62499999999966 90.49999999999989L 4 90.49999999999989Q 0 90.49999999999989 0 86.49999999999989Z" stroke="rgba(33,41,48,1)" stroke-width="2" fill-opacity="1" fill="#ffffff"></path><path id="SvgjsPath1258" d="M 0 30L 139.62499999999966 30M 0 60L 139.62499999999966 60" stroke="rgba(33,41,48,1)" stroke-width="2" fill="none"></path><path id="SvgjsPath1259" d="M 0 0L 139.62499999999966 0L 139.62499999999966 90.49999999999989L 0 90.49999999999989Z" stroke="none" fill="none"></path><g id="SvgjsG1260"><text id="SvgjsText1261" font-family="微软雅黑" text-anchor="middle" font-size="13px" width="120px" fill="#323232" font-weight="700" align="middle" lineHeight="125%" anchor="middle" family="微软雅黑" size="13px" weight="700" font-style="" opacity="1" y="4.375" transform="rotate(0)"><tspan id="SvgjsTspan1262" dy="16" x="70"><tspan id="SvgjsTspan1263" style="text-decoration:;">Object(构造函数)</tspan></tspan></text></g><g id="SvgjsG1264"><text id="SvgjsText1265" font-family="微软雅黑" text-anchor="start" font-size="13px" width="120px" fill="#323232" font-weight="400" align="middle" lineHeight="125%" anchor="start" family="微软雅黑" size="13px" weight="400" font-style="" opacity="1" y="34.375" transform="rotate(0)"><tspan id="SvgjsTspan1266" dy="16" x="10"><tspan id="SvgjsTspan1267" style="text-decoration:;">prototype</tspan></tspan></text></g><g id="SvgjsG1268"><text id="SvgjsText1269" font-family="微软雅黑" text-anchor="start" font-size="13px" width="120px" fill="#323232" font-weight="400" align="middle" lineHeight="125%" anchor="start" family="微软雅黑" size="13px" weight="400" font-style="" opacity="1" y="64.375" transform="rotate(0)"><tspan id="SvgjsTspan1270" dy="16" x="10"><tspan id="SvgjsTspan1271" style="text-decoration:;">__proto__</tspan></tspan></text></g></g><g id="SvgjsG1272"><path id="SvgjsPath1273" d="M491.99883426248664 1096.7499999999995L522.4171654914435 1096.7499999999995L522.4171654914435 1162.4972462459248L550.2354967204002 1162.4972462459248" stroke="#323232" stroke-width="2" fill="none" marker-end="url(#SvgjsMarker1274)"></path></g><g id="SvgjsG1276"><path id="SvgjsPath1277" d="M694.4604967203999 1162.4972462459248L723.7603947719692 1162.4972462459248L723.7603947719692 1233.6438409236757" stroke="#323232" stroke-width="2" fill="none" marker-end="url(#SvgjsMarker1278)"></path></g><g id="SvgjsG1280"><path id="SvgjsPath1281" d="M794.5728947719691 1282.4938409236756L823.5728947719691 1282.4938409236756L823.5728947719691 1135.4999999999995L697.0218749999997 1135.4999999999995" stroke="#323232" stroke-width="2" fill="none" marker-end="url(#SvgjsMarker1282)"></path></g><g id="SvgjsG1284" transform="translate(787.2708397929002,1363.4050493240352)"><path id="SvgjsPath1285" d="M 0 4Q 0 0 4 0L 66.625 0Q 70.625 0 70.625 4L 70.625 37.25Q 70.625 41.25 66.625 41.25L 4 41.25Q 0 41.25 0 37.25Z" stroke="rgba(33,41,48,1)" stroke-width="2" fill-opacity="1" fill="#ffffff"></path><g id="SvgjsG1286"><text id="SvgjsText1287" font-family="微软雅黑" text-anchor="middle" font-size="13px" width="51px" fill="#323232" font-weight="400" align="middle" lineHeight="125%" anchor="middle" family="微软雅黑" size="13px" weight="400" font-style="" opacity="1" y="10" transform="rotate(0)"><tspan id="SvgjsTspan1288" dy="16" x="35.5"><tspan id="SvgjsTspan1289" style="text-decoration:;">null</tspan></tspan></text></g></g><g id="SvgjsG1290"><path id="SvgjsPath1291" d="M794.0224185195542 1311.6020140005994L822.5833397929002 1311.6020140005994L822.5833397929002 1359.8050493240353" stroke="#323232" stroke-width="2" fill="none" marker-end="url(#SvgjsMarker1292)"></path></g><g id="SvgjsG1294" transform="translate(744.3276367187493,862.122246245925)"><path id="SvgjsPath1295" d="M 0 4Q 0 0 4 0L 146.3749999999999 0Q 150.3749999999999 0 150.3749999999999 4L 150.3749999999999 88.24999999999989Q 150.3749999999999 92.24999999999989 146.3749999999999 92.24999999999989L 4 92.24999999999989Q 0 92.24999999999989 0 88.24999999999989Z" stroke="rgba(33,41,48,1)" stroke-width="2" fill-opacity="1" fill="#ffffff"></path><path id="SvgjsPath1296" d="M 0 30L 150.3749999999999 30M 0 60L 150.3749999999999 60" stroke="rgba(33,41,48,1)" stroke-width="2" fill="none"></path><path id="SvgjsPath1297" d="M 0 0L 150.3749999999999 0L 150.3749999999999 92.24999999999989L 0 92.24999999999989Z" stroke="none" fill="none"></path><g id="SvgjsG1298"><text id="SvgjsText1299" font-family="微软雅黑" text-anchor="middle" font-size="13px" width="131px" fill="#323232" font-weight="700" align="middle" lineHeight="125%" anchor="middle" family="微软雅黑" size="13px" weight="700" font-style="" opacity="1" y="4.375" transform="rotate(0)"><tspan id="SvgjsTspan1300" dy="16" x="75.5"><tspan id="SvgjsTspan1301" style="text-decoration:;">Object.prototype</tspan></tspan></text></g><g id="SvgjsG1302"><text id="SvgjsText1303" font-family="微软雅黑" text-anchor="start" font-size="13px" width="131px" fill="#323232" font-weight="400" align="middle" lineHeight="125%" anchor="start" family="微软雅黑" size="13px" weight="400" font-style="" opacity="1" y="34.375" transform="rotate(0)"><tspan id="SvgjsTspan1304" dy="16" x="10"><tspan id="SvgjsTspan1305" style="text-decoration:;">constructor</tspan></tspan></text></g><g id="SvgjsG1306"><text id="SvgjsText1307" font-family="微软雅黑" text-anchor="start" font-size="13px" width="131px" fill="#323232" font-weight="400" align="middle" lineHeight="125%" anchor="start" family="微软雅黑" size="13px" weight="400" font-style="" opacity="1" y="64.375" transform="rotate(0)"><tspan id="SvgjsTspan1308" dy="16" x="10"><tspan id="SvgjsTspan1309" style="text-decoration:;">__proto__</tspan></tspan></text></g></g><g id="SvgjsG1310" transform="translate(934.5776367187491,989.906591589634)"><path id="SvgjsPath1311" d="M 0 4Q 0 0 4 0L 66.625 0Q 70.625 0 70.625 4L 70.625 37.25Q 70.625 41.25 66.625 41.25L 4 41.25Q 0 41.25 0 37.25Z" stroke="rgba(33,41,48,1)" stroke-width="2" fill-opacity="1" fill="#ffffff"></path><g id="SvgjsG1312"><text id="SvgjsText1313" font-family="微软雅黑" text-anchor="middle" font-size="13px" width="51px" fill="#323232" font-weight="400" align="middle" lineHeight="125%" anchor="middle" family="微软雅黑" size="13px" weight="400" font-style="" opacity="1" y="10" transform="rotate(0)"><tspan id="SvgjsTspan1314" dy="16" x="35.5"><tspan id="SvgjsTspan1315" style="text-decoration:;">null</tspan></tspan></text></g></g><g id="SvgjsG1316"><path id="SvgjsPath1317" d="M631.5535231256968 831.872246245925L819.5151367187492 831.872246245925L819.5151367187492 858.522246245925" stroke="#323232" stroke-width="2" fill="none" marker-end="url(#SvgjsMarker1318)"></path></g><g id="SvgjsG1320"><path id="SvgjsPath1321" d="M895.7026367187491 908.247246245925L924.7026367187491 908.247246245925L924.7026367187491 799L634.146875 799" stroke="#323232" stroke-width="2" fill="none" marker-end="url(#SvgjsMarker1322)"></path></g><g id="SvgjsG1324"><path id="SvgjsPath1325" d="M895.171875 940L969.8901367187491 940L969.8901367187491 986.306591589634" stroke="#323232" stroke-width="2" fill="none" marker-end="url(#SvgjsMarker1326)"></path></g><g id="SvgjsG1328" transform="translate(693.4604967203999,979.906591589634)"><path id="SvgjsPath1329" d="M 0 4Q 0 0 4 0L 135.62499999999966 0Q 139.62499999999966 0 139.62499999999966 4L 139.62499999999966 86.49999999999989Q 139.62499999999966 90.49999999999989 135.62499999999966 90.49999999999989L 4 90.49999999999989Q 0 90.49999999999989 0 86.49999999999989Z" stroke="rgba(33,41,48,1)" stroke-width="2" fill-opacity="1" fill="#ffffff"></path><path id="SvgjsPath1330" d="M 0 30L 139.62499999999966 30M 0 60L 139.62499999999966 60" stroke="rgba(33,41,48,1)" stroke-width="2" fill="none"></path><path id="SvgjsPath1331" d="M 0 0L 139.62499999999966 0L 139.62499999999966 90.49999999999989L 0 90.49999999999989Z" stroke="none" fill="none"></path><g id="SvgjsG1332"><text id="SvgjsText1333" font-family="微软雅黑" text-anchor="middle" font-size="13px" width="120px" fill="#323232" font-weight="700" align="middle" lineHeight="125%" anchor="middle" family="微软雅黑" size="13px" weight="700" font-style="" opacity="1" y="4.375" transform="rotate(0)"><tspan id="SvgjsTspan1334" dy="16" x="70"><tspan id="SvgjsTspan1335" style="text-decoration:;">Function(构造函数)</tspan></tspan></text></g><g id="SvgjsG1336"><text id="SvgjsText1337" font-family="微软雅黑" text-anchor="start" font-size="13px" width="120px" fill="#323232" font-weight="400" align="middle" lineHeight="125%" anchor="start" family="微软雅黑" size="13px" weight="400" font-style="" opacity="1" y="34.375" transform="rotate(0)"><tspan id="SvgjsTspan1338" dy="16" x="10"><tspan id="SvgjsTspan1339" style="text-decoration:;">prototype</tspan></tspan></text></g><g id="SvgjsG1340"><text id="SvgjsText1341" font-family="微软雅黑" text-anchor="start" font-size="13px" width="120px" fill="#323232" font-weight="400" align="middle" lineHeight="125%" anchor="start" family="微软雅黑" size="13px" weight="400" font-style="" opacity="1" y="64.375" transform="rotate(0)"><tspan id="SvgjsTspan1342" dy="16" x="10"><tspan id="SvgjsTspan1343" style="text-decoration:;">__proto__</tspan></tspan></text></g></g><g id="SvgjsG1344"><path id="SvgjsPath1345" d="M631.546875 858L662.0036858602 858L662.0036858602 1025.156591589634L689.8604967203999 1025.156591589634" stroke="#323232" stroke-width="2" fill="none" marker-end="url(#SvgjsMarker1346)"></path></g></svg>