<svg id="SvgjsSvg1006" width="1166.8743631779564" height="1429.6550493240352" xmlns="http://www.w3.org/2000/svg" version="1.1" xmlns:xlink="http://www.w3.org/1999/xlink" xmlns:svgjs="http://svgjs.com/svgjs"><defs id="SvgjsDefs1007"><pattern patternUnits="userSpaceOnUse" id="pattern_mark_0" width="300" height="300"><text x="150" y="100" fill="rgba(229,229,229,0.8)" font-size="18" transform="rotate(-45, 150, 150)" style="dominant-baseline: middle; text-anchor: middle;"></text></pattern><pattern patternUnits="userSpaceOnUse" id="pattern_mark_1" width="300" height="300"><text x="150" y="200" fill="rgba(229,229,229,0.8)" font-size="18" transform="rotate(-45, 150, 150)" style="dominant-baseline: middle; text-anchor: middle;"></text></pattern><marker id="SvgjsMarker1029" markerWidth="14" markerHeight="10" refX="10" refY="5" viewBox="0 0 14 10" orient="auto" markerUnits="userSpaceOnUse" stroke-dasharray="0,0"><path id="SvgjsPath1030" d="M0,0 L14,5 L0,10 L0,0" fill="#323232" stroke="#323232" stroke-width="1"></path></marker><marker id="SvgjsMarker1033" markerWidth="14" markerHeight="10" refX="10" refY="5" viewBox="0 0 14 10" orient="auto" markerUnits="userSpaceOnUse" stroke-dasharray="0,0"><path id="SvgjsPath1034" d="M0,0 L14,5 L0,10 L0,0" fill="#323232" stroke="#323232" stroke-width="1"></path></marker><marker id="SvgjsMarker1117" markerWidth="14" markerHeight="10" refX="10" refY="5" viewBox="0 0 14 10" orient="auto" markerUnits="userSpaceOnUse" stroke-dasharray="0,0"><path id="SvgjsPath1118" d="M0,0 L14,5 L0,10 L0,0" fill="#323232" stroke="#323232" stroke-width="1"></path></marker><marker id="SvgjsMarker1121" markerWidth="14" markerHeight="10" refX="10" refY="5" viewBox="0 0 14 10" orient="auto" markerUnits="userSpaceOnUse" stroke-dasharray="0,0"><path id="SvgjsPath1122" d="M0,0 L14,5 L0,10 L0,0" fill="#323232" stroke="#323232" stroke-width="1"></path></marker><marker id="SvgjsMarker1125" markerWidth="14" markerHeight="10" refX="10" refY="5" viewBox="0 0 14 10" orient="auto" markerUnits="userSpaceOnUse" stroke-dasharray="0,0"><path id="SvgjsPath1126" d="M0,0 L14,5 L0,10 L0,0" fill="#323232" stroke="#323232" stroke-width="1"></path></marker><marker id="SvgjsMarker1163" markerWidth="14" markerHeight="10" refX="10" refY="5" viewBox="0 0 14 10" orient="auto" markerUnits="userSpaceOnUse" stroke-dasharray="0,0"><path id="SvgjsPath1164" d="M0,0 L14,5 L0,10 L0,0" fill="#323232" stroke="#323232" stroke-width="1"></path></marker><marker id="SvgjsMarker1167" markerWidth="14" markerHeight="10" refX="10" refY="5" viewBox="0 0 14 10" orient="auto" markerUnits="userSpaceOnUse" stroke-dasharray="0,0"><path id="SvgjsPath1168" d="M0,0 L14,5 L0,10 L0,0" fill="#323232" stroke="#323232" stroke-width="1"></path></marker><marker id="SvgjsMarker1187" markerWidth="14" markerHeight="10" refX="10" refY="5" viewBox="0 0 14 10" orient="auto" markerUnits="userSpaceOnUse" stroke-dasharray="0,0"><path id="SvgjsPath1188" d="M0,0 L14,5 L0,10 L0,0" fill="#323232" stroke="#323232" stroke-width="1"></path></marker><marker id="SvgjsMarker1191" markerWidth="14" markerHeight="10" refX="10" refY="5" viewBox="0 0 14 10" orient="auto" markerUnits="userSpaceOnUse" stroke-dasharray="0,0"><path id="SvgjsPath1192" d="M0,0 L14,5 L0,10 L0,0" fill="#323232" stroke="#323232" stroke-width="1"></path></marker><marker id="SvgjsMarker1195" markerWidth="14" markerHeight="10" refX="10" refY="5" viewBox="0 0 14 10" orient="auto" markerUnits="userSpaceOnUse" stroke-dasharray="0,0"><path id="SvgjsPath1196" d="M0,0 L14,5 L0,10 L0,0" fill="#323232" stroke="#323232" stroke-width="1"></path></marker><marker id="SvgjsMarker1199" markerWidth="14" markerHeight="10" refX="10" refY="5" viewBox="0 0 14 10" orient="auto" markerUnits="userSpaceOnUse" stroke-dasharray="0,0"><path id="SvgjsPath1200" d="M0,0 L14,5 L0,10 L0,0" fill="#323232" stroke="#323232" stroke-width="1"></path></marker><marker id="SvgjsMarker1203" markerWidth="14" markerHeight="10" refX="10" refY="5" viewBox="0 0 14 10" orient="auto" markerUnits="userSpaceOnUse" stroke-dasharray="0,0"><path id="SvgjsPath1204" d="M0,0 L14,5 L0,10 L0,0" fill="#323232" stroke="#323232" stroke-width="1"></path></marker><marker id="SvgjsMarker1245" markerWidth="14" markerHeight="10" refX="10" refY="5" viewBox="0 0 14 10" orient="auto" markerUnits="userSpaceOnUse" stroke-dasharray="0,0"><path id="SvgjsPath1246" d="M0,0 L14,5 L0,10 L0,0" fill="#323232" stroke="#323232" stroke-width="1"></path></marker><marker id="SvgjsMarker1249" markerWidth="14" markerHeight="10" refX="10" refY="5" viewBox="0 0 14 10" orient="auto" markerUnits="userSpaceOnUse" stroke-dasharray="0,0"><path id="SvgjsPath1250" d="M0,0 L14,5 L0,10 L0,0" fill="#323232" stroke="#323232" stroke-width="1"></path></marker><marker id="SvgjsMarker1253" markerWidth="14" markerHeight="10" refX="10" refY="5" viewBox="0 0 14 10" orient="auto" markerUnits="userSpaceOnUse" stroke-dasharray="0,0"><path id="SvgjsPath1254" d="M0,0 L14,5 L0,10 L0,0" fill="#323232" stroke="#323232" stroke-width="1"></path></marker><marker id="SvgjsMarker1257" markerWidth="14" markerHeight="10" refX="10" refY="5" viewBox="0 0 14 10" orient="auto" markerUnits="userSpaceOnUse" stroke-dasharray="0,0"><path id="SvgjsPath1258" d="M0,0 L14,5 L0,10 L0,0" fill="#323232" stroke="#323232" stroke-width="1"></path></marker><marker id="SvgjsMarker1277" markerWidth="14" markerHeight="10" refX="10" refY="5" viewBox="0 0 14 10" orient="auto" markerUnits="userSpaceOnUse" stroke-dasharray="0,0"><path id="SvgjsPath1278" d="M0,0 L14,5 L0,10 L0,0" fill="#323232" stroke="#323232" stroke-width="1"></path></marker><marker id="SvgjsMarker1281" markerWidth="14" markerHeight="10" refX="10" refY="5" viewBox="0 0 14 10" orient="auto" markerUnits="userSpaceOnUse" stroke-dasharray="0,0"><path id="SvgjsPath1282" d="M0,0 L14,5 L0,10 L0,0" fill="#323232" stroke="#323232" stroke-width="1"></path></marker><marker id="SvgjsMarker1285" markerWidth="14" markerHeight="10" refX="10" refY="5" viewBox="0 0 14 10" orient="auto" markerUnits="userSpaceOnUse" stroke-dasharray="0,0"><path id="SvgjsPath1286" d="M0,0 L14,5 L0,10 L0,0" fill="#323232" stroke="#323232" stroke-width="1"></path></marker><marker id="SvgjsMarker1295" markerWidth="14" markerHeight="10" refX="10" refY="5" viewBox="0 0 14 10" orient="auto" markerUnits="userSpaceOnUse" stroke-dasharray="0,0"><path id="SvgjsPath1296" d="M0,0 L14,5 L0,10 L0,0" fill="#323232" stroke="#323232" stroke-width="1"></path></marker><marker id="SvgjsMarker1321" markerWidth="14" markerHeight="10" refX="10" refY="5" viewBox="0 0 14 10" orient="auto" markerUnits="userSpaceOnUse" stroke-dasharray="0,0"><path id="SvgjsPath1322" d="M0,0 L14,5 L0,10 L0,0" fill="#323232" stroke="#323232" stroke-width="1"></path></marker><marker id="SvgjsMarker1325" markerWidth="14" markerHeight="10" refX="10" refY="5" viewBox="0 0 14 10" orient="auto" markerUnits="userSpaceOnUse" stroke-dasharray="0,0"><path id="SvgjsPath1326" d="M0,0 L14,5 L0,10 L0,0" fill="#323232" stroke="#323232" stroke-width="1"></path></marker><marker id="SvgjsMarker1329" markerWidth="14" markerHeight="10" refX="10" refY="5" viewBox="0 0 14 10" orient="auto" markerUnits="userSpaceOnUse" stroke-dasharray="0,0"><path id="SvgjsPath1330" d="M0,0 L14,5 L0,10 L0,0" fill="#323232" stroke="#323232" stroke-width="1"></path></marker><marker id="SvgjsMarker1349" markerWidth="14" markerHeight="10" refX="10" refY="5" viewBox="0 0 14 10" orient="auto" markerUnits="userSpaceOnUse" stroke-dasharray="0,0"><path id="SvgjsPath1350" d="M0,0 L14,5 L0,10 L0,0" fill="#323232" stroke="#323232" stroke-width="1"></path></marker></defs><rect id="svgbackgroundid" width="1166.8743631779564" height="1429.6550493240352" fill="transparent"></rect><rect id="SvgjsRect1009" width="1166.8743631779564" height="1429.6550493240352" fill="url(#pattern_mark_0)"></rect><rect id="SvgjsRect1010" width="1166.8743631779564" height="1429.6550493240352" fill="url(#pattern_mark_1)"></rect><g id="SvgjsG1011" transform="translate(25,25)"><path id="SvgjsPath1012" d="M 0 4Q 0 0 4 0L 211.4294339693509 0Q 215.4294339693509 0 215.4294339693509 4L 215.4294339693509 82.99999999999996Q 215.4294339693509 86.99999999999996 211.4294339693509 86.99999999999996L 4 86.99999999999996Q 0 86.99999999999996 0 82.99999999999996Z" stroke="rgba(33,41,48,1)" stroke-width="2" fill-opacity="1" fill="#ffffff"></path><path id="SvgjsPath1013" d="M 0 30L 215.4294339693509 30M 0 60L 215.4294339693509 60" stroke="rgba(33,41,48,1)" stroke-width="2" fill="none"></path><path id="SvgjsPath1014" d="M 0 0L 215.4294339693509 0L 215.4294339693509 86.99999999999996L 0 86.99999999999996Z" stroke="none" fill="none"></path><g id="SvgjsG1015"><text id="SvgjsText1016" font-family="微软雅黑" text-anchor="middle" font-size="13px" width="196px" fill="#323232" font-weight="700" align="middle" lineHeight="125%" anchor="middle" family="微软雅黑" size="13px" weight="700" font-style="" opacity="1" y="4.375" transform="rotate(0)"><tspan id="SvgjsTspan1017" dy="16.25" x="108"><tspan id="SvgjsTspan1018" style="">person(对象) = new Person()</tspan></tspan></text></g><g id="SvgjsG1019"><text id="SvgjsText1020" font-family="微软雅黑" text-anchor="start" font-size="13px" width="196px" fill="#323232" font-weight="400" align="middle" lineHeight="125%" anchor="start" family="微软雅黑" size="13px" weight="400" font-style="" opacity="1" y="34.375" transform="rotate(0)"><tspan id="SvgjsTspan1021" dy="16.25" x="10"><tspan id="SvgjsTspan1022" style="">constructor</tspan></tspan></text></g><g id="SvgjsG1023"><text id="SvgjsText1024" font-family="微软雅黑" text-anchor="start" font-size="13px" width="196px" fill="#323232" font-weight="400" align="middle" lineHeight="125%" anchor="start" family="微软雅黑" size="13px" weight="400" font-style="" opacity="1" y="64.375" transform="rotate(0)"><tspan id="SvgjsTspan1025" dy="16.25" x="10"><tspan id="SvgjsTspan1026" style="">__proto__</tspan></tspan></text></g></g><g id="SvgjsG1027"><path id="SvgjsPath1028" d="M241.4294339693509 94.59999999999994L272.11302771935095 94.59999999999994L272.11302771935095 170.09375L300.19662146935104 170.09375" stroke="#323232" stroke-width="2" fill="none" marker-end="url(#SvgjsMarker1029)"></path></g><g id="SvgjsG1031"><path id="SvgjsPath1032" d="M241.4294339693509 68.49999999999996L373.6091214693509 68.49999999999996L373.6091214693509 121.24375000000002" stroke="#323232" stroke-width="2" fill="none" marker-end="url(#SvgjsMarker1033)"></path></g><g id="SvgjsG1035" transform="translate(491.48026099571814,203.59374999999983)"><path id="SvgjsPath1036" d="M 0 4Q 0 0 4 0L 135.62499999999966 0Q 139.62499999999966 0 139.62499999999966 4L 139.62499999999966 86.49999999999989Q 139.62499999999966 90.49999999999989 135.62499999999966 90.49999999999989L 4 90.49999999999989Q 0 90.49999999999989 0 86.49999999999989Z" stroke="rgba(33,41,48,1)" stroke-width="2" fill-opacity="1" fill="#ffffff"></path><path id="SvgjsPath1037" d="M 0 30L 139.62499999999966 30M 0 60L 139.62499999999966 60" stroke="rgba(33,41,48,1)" stroke-width="2" fill="none"></path><path id="SvgjsPath1038" d="M 0 0L 139.62499999999966 0L 139.62499999999966 90.49999999999989L 0 90.49999999999989Z" stroke="none" fill="none"></path><g id="SvgjsG1039"><text id="SvgjsText1040" font-family="微软雅黑" text-anchor="middle" font-size="13px" width="120px" fill="#323232" font-weight="700" align="middle" lineHeight="125%" anchor="middle" family="微软雅黑" size="13px" weight="700" font-style="" opacity="1" y="4.375" transform="rotate(0)"><tspan id="SvgjsTspan1041" dy="16.25" x="70"><tspan id="SvgjsTspan1042" style="">Person.Prototype</tspan></tspan></text></g><g id="SvgjsG1043"><text id="SvgjsText1044" font-family="微软雅黑" text-anchor="start" font-size="13px" width="120px" fill="#323232" font-weight="400" align="middle" lineHeight="125%" anchor="start" family="微软雅黑" size="13px" weight="400" font-style="" opacity="1" y="34.375" transform="rotate(0)"><tspan id="SvgjsTspan1045" dy="16.25" x="10"><tspan id="SvgjsTspan1046" style="">constructor</tspan></tspan></text></g><g id="SvgjsG1047"><text id="SvgjsText1048" font-family="微软雅黑" text-anchor="start" font-size="13px" width="120px" fill="#323232" font-weight="400" align="middle" lineHeight="125%" anchor="start" family="微软雅黑" size="13px" weight="400" font-style="" opacity="1" y="64.375" transform="rotate(0)"><tspan id="SvgjsTspan1049" dy="16.25" x="10"><tspan id="SvgjsTspan1050" style="">__proto__</tspan></tspan></text></g></g><g id="SvgjsG1051" transform="translate(303.79662146935107,124.84375000000001)"><path id="SvgjsPath1052" d="M 0 4Q 0 0 4 0L 135.62499999999966 0Q 139.62499999999966 0 139.62499999999966 4L 139.62499999999966 86.49999999999989Q 139.62499999999966 90.49999999999989 135.62499999999966 90.49999999999989L 4 90.49999999999989Q 0 90.49999999999989 0 86.49999999999989Z" stroke="rgba(33,41,48,1)" stroke-width="2" fill-opacity="1" fill="#ffffff"></path><path id="SvgjsPath1053" d="M 0 30L 139.62499999999966 30M 0 60L 139.62499999999966 60" stroke="rgba(33,41,48,1)" stroke-width="2" fill="none"></path><path id="SvgjsPath1054" d="M 0 0L 139.62499999999966 0L 139.62499999999966 90.49999999999989L 0 90.49999999999989Z" stroke="none" fill="none"></path><g id="SvgjsG1055"><text id="SvgjsText1056" font-family="微软雅黑" text-anchor="middle" font-size="13px" width="120px" fill="#323232" font-weight="700" align="middle" lineHeight="125%" anchor="middle" family="微软雅黑" size="13px" weight="700" font-style="" opacity="1" y="4.375" transform="rotate(0)"><tspan id="SvgjsTspan1057" dy="16.25" x="70"><tspan id="SvgjsTspan1058" style="">Person(构造函数)</tspan></tspan></text></g><g id="SvgjsG1059"><text id="SvgjsText1060" font-family="微软雅黑" text-anchor="start" font-size="13px" width="120px" fill="#323232" font-weight="400" align="middle" lineHeight="125%" anchor="start" family="微软雅黑" size="13px" weight="400" font-style="" opacity="1" y="34.375" transform="rotate(0)"><tspan id="SvgjsTspan1061" dy="16.25" x="10"><tspan id="SvgjsTspan1062" style="">prototype</tspan></tspan></text></g><g id="SvgjsG1063"><text id="SvgjsText1064" font-family="微软雅黑" text-anchor="start" font-size="13px" width="120px" fill="#323232" font-weight="400" align="middle" lineHeight="125%" anchor="start" family="微软雅黑" size="13px" weight="400" font-style="" opacity="1" y="64.375" transform="rotate(0)"><tspan id="SvgjsTspan1065" dy="16.25" x="10"><tspan id="SvgjsTspan1066" style="">__proto__</tspan></tspan></text></g></g><g id="SvgjsG1067" transform="translate(225.58629611397942,906.1565915896341)"><path id="SvgjsPath1068" d="M 0 4Q 0 0 4 0L 135.62499999999966 0Q 139.62499999999966 0 139.62499999999966 4L 139.62499999999966 86.49999999999989Q 139.62499999999966 90.49999999999989 135.62499999999966 90.49999999999989L 4 90.49999999999989Q 0 90.49999999999989 0 86.49999999999989Z" stroke="rgba(33,41,48,1)" stroke-width="2" fill-opacity="1" fill="#ffffff"></path><path id="SvgjsPath1069" d="M 0 30L 139.62499999999966 30M 0 60L 139.62499999999966 60" stroke="rgba(33,41,48,1)" stroke-width="2" fill="none"></path><path id="SvgjsPath1070" d="M 0 0L 139.62499999999966 0L 139.62499999999966 90.49999999999989L 0 90.49999999999989Z" stroke="none" fill="none"></path><g id="SvgjsG1071"><text id="SvgjsText1072" font-family="微软雅黑" text-anchor="middle" font-size="13px" width="120px" fill="#323232" font-weight="700" align="middle" lineHeight="125%" anchor="middle" family="微软雅黑" size="13px" weight="700" font-style="" opacity="1" y="4.375" transform="rotate(0)"><tspan id="SvgjsTspan1073" dy="16.25" x="70"><tspan id="SvgjsTspan1074" style="">Function(构造函数)</tspan></tspan></text></g><g id="SvgjsG1075"><text id="SvgjsText1076" font-family="微软雅黑" text-anchor="start" font-size="13px" width="120px" fill="#323232" font-weight="400" align="middle" lineHeight="125%" anchor="start" family="微软雅黑" size="13px" weight="400" font-style="" opacity="1" y="34.375" transform="rotate(0)"><tspan id="SvgjsTspan1077" dy="16.25" x="10"><tspan id="SvgjsTspan1078" style="">prototype</tspan></tspan></text></g><g id="SvgjsG1079"><text id="SvgjsText1080" font-family="微软雅黑" text-anchor="start" font-size="13px" width="120px" fill="#323232" font-weight="400" align="middle" lineHeight="125%" anchor="start" family="微软雅黑" size="13px" weight="400" font-style="" opacity="1" y="64.375" transform="rotate(0)"><tspan id="SvgjsTspan1081" dy="16.25" x="10"><tspan id="SvgjsTspan1082" style="">__proto__</tspan></tspan></text></g></g><g id="SvgjsG1083" transform="translate(25,685.0480769230769)"><path id="SvgjsPath1084" d="M 0 4Q 0 0 4 0L 135.62499999999966 0Q 139.62499999999966 0 139.62499999999966 4L 139.62499999999966 86.49999999999989Q 139.62499999999966 90.49999999999989 135.62499999999966 90.49999999999989L 4 90.49999999999989Q 0 90.49999999999989 0 86.49999999999989Z" stroke="rgba(33,41,48,1)" stroke-width="2" fill-opacity="1" fill="#ffffff"></path><path id="SvgjsPath1085" d="M 0 30L 139.62499999999966 30M 0 60L 139.62499999999966 60" stroke="rgba(33,41,48,1)" stroke-width="2" fill="none"></path><path id="SvgjsPath1086" d="M 0 0L 139.62499999999966 0L 139.62499999999966 90.49999999999989L 0 90.49999999999989Z" stroke="none" fill="none"></path><g id="SvgjsG1087"><text id="SvgjsText1088" font-family="微软雅黑" text-anchor="middle" font-size="13px" width="120px" fill="#323232" font-weight="700" align="middle" lineHeight="125%" anchor="middle" family="微软雅黑" size="13px" weight="700" font-style="" opacity="1" y="4.375" transform="rotate(0)"><tspan id="SvgjsTspan1089" dy="16.25" x="70"><tspan id="SvgjsTspan1090" style="">fun() (一个函数)</tspan></tspan></text></g><g id="SvgjsG1091"><text id="SvgjsText1092" font-family="微软雅黑" text-anchor="start" font-size="13px" width="120px" fill="#323232" font-weight="400" align="middle" lineHeight="125%" anchor="start" family="微软雅黑" size="13px" weight="400" font-style="" opacity="1" y="34.375" transform="rotate(0)"><tspan id="SvgjsTspan1093" dy="16.25" x="10"><tspan id="SvgjsTspan1094" style="">prototype</tspan></tspan></text></g><g id="SvgjsG1095"><text id="SvgjsText1096" font-family="微软雅黑" text-anchor="start" font-size="13px" width="120px" fill="#323232" font-weight="400" align="middle" lineHeight="125%" anchor="start" family="微软雅黑" size="13px" weight="400" font-style="" opacity="1" y="64.375" transform="rotate(0)"><tspan id="SvgjsTspan1097" dy="16.25" x="10"><tspan id="SvgjsTspan1098" style="">__proto__</tspan></tspan></text></g></g><g id="SvgjsG1099" transform="translate(263.125,755.5363581730769)"><path id="SvgjsPath1100" d="M 0 4Q 0 0 4 0L 135.62499999999966 0Q 139.62499999999966 0 139.62499999999966 4L 139.62499999999966 86.49999999999989Q 139.62499999999966 90.49999999999989 135.62499999999966 90.49999999999989L 4 90.49999999999989Q 0 90.49999999999989 0 86.49999999999989Z" stroke="rgba(33,41,48,1)" stroke-width="2" fill-opacity="1" fill="#ffffff"></path><path id="SvgjsPath1101" d="M 0 30L 139.62499999999966 30M 0 60L 139.62499999999966 60" stroke="rgba(33,41,48,1)" stroke-width="2" fill="none"></path><path id="SvgjsPath1102" d="M 0 0L 139.62499999999966 0L 139.62499999999966 90.49999999999989L 0 90.49999999999989Z" stroke="none" fill="none"></path><g id="SvgjsG1103"><text id="SvgjsText1104" font-family="微软雅黑" text-anchor="middle" font-size="13px" width="120px" fill="#323232" font-weight="700" align="middle" lineHeight="125%" anchor="middle" family="微软雅黑" size="13px" weight="700" font-style="" opacity="1" y="4.375" transform="rotate(0)"><tspan id="SvgjsTspan1105" dy="16.25" x="70"><tspan id="SvgjsTspan1106" style="">fun.prototype</tspan></tspan></text></g><g id="SvgjsG1107"><text id="SvgjsText1108" font-family="微软雅黑" text-anchor="start" font-size="13px" width="120px" fill="#323232" font-weight="400" align="middle" lineHeight="125%" anchor="start" family="微软雅黑" size="13px" weight="400" font-style="" opacity="1" y="34.375" transform="rotate(0)"><tspan id="SvgjsTspan1109" dy="16.25" x="10"><tspan id="SvgjsTspan1110" style="">constructor</tspan></tspan></text></g><g id="SvgjsG1111"><text id="SvgjsText1112" font-family="微软雅黑" text-anchor="start" font-size="13px" width="120px" fill="#323232" font-weight="400" align="middle" lineHeight="125%" anchor="start" family="微软雅黑" size="13px" weight="400" font-style="" opacity="1" y="64.375" transform="rotate(0)"><tspan id="SvgjsTspan1113" dy="16.25" x="10"><tspan id="SvgjsTspan1114" style="">__proto__</tspan></tspan></text></g></g><g id="SvgjsG1115"><path id="SvgjsPath1116" d="M165.6249999999997 730.298076923077L332.93749999999983 730.298076923077L332.93749999999983 751.9363581730769" stroke="#323232" stroke-width="2" fill="none" marker-end="url(#SvgjsMarker1117)"></path></g><g id="SvgjsG1119"><path id="SvgjsPath1120" d="M403.74999999999966 800.7863581730769L432.74999999999966 800.7863581730769L432.74999999999966 702.4230769230767L167.93508300781244 702.4230769230767" stroke="#323232" stroke-width="2" fill="none" marker-end="url(#SvgjsMarker1121)"></path></g><g id="SvgjsG1123"><path id="SvgjsPath1124" d="M403.46008300781244 831.8176081730768L446.6941763014303 831.8176081730768L446.6941763014303 831.872246245925L487.328269595048 831.872246245925" stroke="#323232" stroke-width="2" fill="none" marker-end="url(#SvgjsMarker1125)"></path></g><g id="SvgjsG1127" transform="translate(490.92826959504805,786.6222462459251)"><path id="SvgjsPath1128" d="M 0 4Q 0 0 4 0L 135.62499999999966 0Q 139.62499999999966 0 139.62499999999966 4L 139.62499999999966 86.49999999999989Q 139.62499999999966 90.49999999999989 135.62499999999966 90.49999999999989L 4 90.49999999999989Q 0 90.49999999999989 0 86.49999999999989Z" stroke="rgba(33,41,48,1)" stroke-width="2" fill-opacity="1" fill="#ffffff"></path><path id="SvgjsPath1129" d="M 0 30L 139.62499999999966 30M 0 60L 139.62499999999966 60" stroke="rgba(33,41,48,1)" stroke-width="2" fill="none"></path><path id="SvgjsPath1130" d="M 0 0L 139.62499999999966 0L 139.62499999999966 90.49999999999989L 0 90.49999999999989Z" stroke="none" fill="none"></path><g id="SvgjsG1131"><text id="SvgjsText1132" font-family="微软雅黑" text-anchor="middle" font-size="13px" width="120px" fill="#323232" font-weight="700" align="middle" lineHeight="125%" anchor="middle" family="微软雅黑" size="13px" weight="700" font-style="" opacity="1" y="4.375" transform="rotate(0)"><tspan id="SvgjsTspan1133" dy="16.25" x="70"><tspan id="SvgjsTspan1134" style="">Object(构造函数)</tspan></tspan></text></g><g id="SvgjsG1135"><text id="SvgjsText1136" font-family="微软雅黑" text-anchor="start" font-size="13px" width="120px" fill="#323232" font-weight="400" align="middle" lineHeight="125%" anchor="start" family="微软雅黑" size="13px" weight="400" font-style="" opacity="1" y="34.375" transform="rotate(0)"><tspan id="SvgjsTspan1137" dy="16.25" x="10"><tspan id="SvgjsTspan1138" style="">prototype</tspan></tspan></text></g><g id="SvgjsG1139"><text id="SvgjsText1140" font-family="微软雅黑" text-anchor="start" font-size="13px" width="120px" fill="#323232" font-weight="400" align="middle" lineHeight="125%" anchor="start" family="微软雅黑" size="13px" weight="400" font-style="" opacity="1" y="64.375" transform="rotate(0)"><tspan id="SvgjsTspan1141" dy="16.25" x="10"><tspan id="SvgjsTspan1142" style="">__proto__</tspan></tspan></text></g></g><g id="SvgjsG1143" transform="translate(351.43408543822636,1023.6418269230765)"><path id="SvgjsPath1144" d="M 0 4Q 0 0 4 0L 135.62499999999966 0Q 139.62499999999966 0 139.62499999999966 4L 139.62499999999966 86.49999999999989Q 139.62499999999966 90.49999999999989 135.62499999999966 90.49999999999989L 4 90.49999999999989Q 0 90.49999999999989 0 86.49999999999989Z" stroke="rgba(33,41,48,1)" stroke-width="2" fill-opacity="1" fill="#ffffff"></path><path id="SvgjsPath1145" d="M 0 30L 139.62499999999966 30M 0 60L 139.62499999999966 60" stroke="rgba(33,41,48,1)" stroke-width="2" fill="none"></path><path id="SvgjsPath1146" d="M 0 0L 139.62499999999966 0L 139.62499999999966 90.49999999999989L 0 90.49999999999989Z" stroke="none" fill="none"></path><g id="SvgjsG1147"><text id="SvgjsText1148" font-family="微软雅黑" text-anchor="middle" font-size="13px" width="120px" fill="#323232" font-weight="700" align="middle" lineHeight="125%" anchor="middle" family="微软雅黑" size="13px" weight="700" font-style="" opacity="1" y="-4.125" transform="rotate(0)"><tspan id="SvgjsTspan1149" dy="16.25" x="70"><tspan id="SvgjsTspan1150" style="">Function.prototyp</tspan></tspan><tspan id="SvgjsTspan1151" dy="16.25" x="70"><tspan id="SvgjsTspan1152" style="">e</tspan></tspan></text></g><g id="SvgjsG1153"><text id="SvgjsText1154" font-family="微软雅黑" text-anchor="start" font-size="13px" width="120px" fill="#323232" font-weight="400" align="middle" lineHeight="125%" anchor="start" family="微软雅黑" size="13px" weight="400" font-style="" opacity="1" y="34.375" transform="rotate(0)"><tspan id="SvgjsTspan1155" dy="16.25" x="10"><tspan id="SvgjsTspan1156" style="">constructor</tspan></tspan></text></g><g id="SvgjsG1157"><text id="SvgjsText1158" font-family="微软雅黑" text-anchor="start" font-size="13px" width="120px" fill="#323232" font-weight="400" align="middle" lineHeight="125%" anchor="start" family="微软雅黑" size="13px" weight="400" font-style="" opacity="1" y="64.375" transform="rotate(0)"><tspan id="SvgjsTspan1159" dy="16.25" x="10"><tspan id="SvgjsTspan1160" style="">__proto__</tspan></tspan></text></g></g><g id="SvgjsG1161"><path id="SvgjsPath1162" d="M366.2112961139789 951.406591589634L421.246585438226 951.406591589634L421.246585438226 1020.0418269230765" stroke="#323232" stroke-width="2" fill="none" marker-end="url(#SvgjsMarker1163)"></path></g><g id="SvgjsG1165"><path id="SvgjsPath1166" d="M492.05908543822534 1068.8918269230762L521.0590854382253 1068.8918269230762L521.0590854382253 925.2134153201027L368.31341176873826 925.2134153201027" stroke="#323232" stroke-width="2" fill="none" marker-end="url(#SvgjsMarker1167)"></path></g><g id="SvgjsG1169" transform="translate(653.9476412413204,1237.2438409236756)"><path id="SvgjsPath1170" d="M 0 4Q 0 0 4 0L 135.62499999999966 0Q 139.62499999999966 0 139.62499999999966 4L 139.62499999999966 86.49999999999989Q 139.62499999999966 90.49999999999989 135.62499999999966 90.49999999999989L 4 90.49999999999989Q 0 90.49999999999989 0 86.49999999999989Z" stroke="rgba(33,41,48,1)" stroke-width="2" fill-opacity="1" fill="#ffffff"></path><path id="SvgjsPath1171" d="M 0 30L 139.62499999999966 30M 0 60L 139.62499999999966 60" stroke="rgba(33,41,48,1)" stroke-width="2" fill="none"></path><path id="SvgjsPath1172" d="M 0 0L 139.62499999999966 0L 139.62499999999966 90.49999999999989L 0 90.49999999999989Z" stroke="none" fill="none"></path><g id="SvgjsG1173"><text id="SvgjsText1174" font-family="微软雅黑" text-anchor="middle" font-size="13px" width="120px" fill="#323232" font-weight="700" align="middle" lineHeight="125%" anchor="middle" family="微软雅黑" size="13px" weight="700" font-style="" opacity="1" y="4.375" transform="rotate(0)"><tspan id="SvgjsTspan1175" dy="16.25" x="70"><tspan id="SvgjsTspan1176" style="">Object.prototype</tspan></tspan></text></g><g id="SvgjsG1177"><text id="SvgjsText1178" font-family="微软雅黑" text-anchor="start" font-size="13px" width="120px" fill="#323232" font-weight="400" align="middle" lineHeight="125%" anchor="start" family="微软雅黑" size="13px" weight="400" font-style="" opacity="1" y="34.375" transform="rotate(0)"><tspan id="SvgjsTspan1179" dy="16.25" x="10"><tspan id="SvgjsTspan1180" style="">constructor</tspan></tspan></text></g><g id="SvgjsG1181"><text id="SvgjsText1182" font-family="微软雅黑" text-anchor="start" font-size="13px" width="120px" fill="#323232" font-weight="400" align="middle" lineHeight="125%" anchor="start" family="微软雅黑" size="13px" weight="400" font-style="" opacity="1" y="64.375" transform="rotate(0)"><tspan id="SvgjsTspan1183" dy="16.25" x="10"><tspan id="SvgjsTspan1184" style="">__proto__</tspan></tspan></text></g></g><g id="SvgjsG1185"><path id="SvgjsPath1186" d="M165.33508300781244 759.2980769230768L194.96068956089593 759.2980769230768L194.96068956089593 951.406591589634L221.98629611397942 951.406591589634" stroke="#323232" stroke-width="2" fill="none" marker-end="url(#SvgjsMarker1187)"></path></g><g id="SvgjsG1189"><path id="SvgjsPath1190" d="M366.0245894845137 980.2134153201034L395.5612010929854 980.2134153201034L395.5612010929854 1020.0730769230765" stroke="#323232" stroke-width="2" fill="none" marker-end="url(#SvgjsMarker1191)"></path></g><g id="SvgjsG1193"><path id="SvgjsPath1194" d="M444.4216214693507 170.09374999999994L561.292760995718 170.09374999999994L561.292760995718 199.99374999999986" stroke="#323232" stroke-width="2" fill="none" marker-end="url(#SvgjsMarker1195)"></path></g><g id="SvgjsG1197"><path id="SvgjsPath1198" d="M632.1052609957178 248.84374999999977L661.1052609957178 248.84374999999977L661.1052609957178 139.8749999999999L446.3966214693508 139.8749999999999" stroke="#323232" stroke-width="2" fill="none" marker-end="url(#SvgjsMarker1199)"></path></g><g id="SvgjsG1201"><path id="SvgjsPath1202" d="M631.9216214693507 279.24999999999983L658.6524707910892 279.24999999999983L658.6524707910892 337.2104492187498L682.7833201128276 337.2104492187498" stroke="#323232" stroke-width="2" fill="none" marker-end="url(#SvgjsMarker1203)"></path></g><g id="SvgjsG1205" transform="translate(686.3833201128276,291.96044921874983)"><path id="SvgjsPath1206" d="M 0 4Q 0 0 4 0L 135.62499999999966 0Q 139.62499999999966 0 139.62499999999966 4L 139.62499999999966 86.49999999999989Q 139.62499999999966 90.49999999999989 135.62499999999966 90.49999999999989L 4 90.49999999999989Q 0 90.49999999999989 0 86.49999999999989Z" stroke="rgba(33,41,48,1)" stroke-width="2" fill-opacity="1" fill="#ffffff"></path><path id="SvgjsPath1207" d="M 0 30L 139.62499999999966 30M 0 60L 139.62499999999966 60" stroke="rgba(33,41,48,1)" stroke-width="2" fill="none"></path><path id="SvgjsPath1208" d="M 0 0L 139.62499999999966 0L 139.62499999999966 90.49999999999989L 0 90.49999999999989Z" stroke="none" fill="none"></path><g id="SvgjsG1209"><text id="SvgjsText1210" font-family="微软雅黑" text-anchor="middle" font-size="13px" width="120px" fill="#323232" font-weight="700" align="middle" lineHeight="125%" anchor="middle" family="微软雅黑" size="13px" weight="700" font-style="" opacity="1" y="4.375" transform="rotate(0)"><tspan id="SvgjsTspan1211" dy="16.25" x="70"><tspan id="SvgjsTspan1212" style="">Object(构造函数)</tspan></tspan></text></g><g id="SvgjsG1213"><text id="SvgjsText1214" font-family="微软雅黑" text-anchor="start" font-size="13px" width="120px" fill="#323232" font-weight="400" align="middle" lineHeight="125%" anchor="start" family="微软雅黑" size="13px" weight="400" font-style="" opacity="1" y="34.375" transform="rotate(0)"><tspan id="SvgjsTspan1215" dy="16.25" x="10"><tspan id="SvgjsTspan1216" style="">prototype</tspan></tspan></text></g><g id="SvgjsG1217"><text id="SvgjsText1218" font-family="微软雅黑" text-anchor="start" font-size="13px" width="120px" fill="#323232" font-weight="400" align="middle" lineHeight="125%" anchor="start" family="微软雅黑" size="13px" weight="400" font-style="" opacity="1" y="64.375" transform="rotate(0)"><tspan id="SvgjsTspan1219" dy="16.25" x="10"><tspan id="SvgjsTspan1220" style="">__proto__</tspan></tspan></text></g></g><g id="SvgjsG1221" transform="translate(1071.2493631779564,481.0300493240355)"><path id="SvgjsPath1222" d="M 0 4Q 0 0 4 0L 66.625 0Q 70.625 0 70.625 4L 70.625 37.25Q 70.625 41.25 66.625 41.25L 4 41.25Q 0 41.25 0 37.25Z" stroke="rgba(33,41,48,1)" stroke-width="2" fill-opacity="1" fill="#ffffff"></path><g id="SvgjsG1223"><text id="SvgjsText1224" font-family="微软雅黑" text-anchor="middle" font-size="13px" width="51px" fill="#323232" font-weight="400" align="middle" lineHeight="125%" anchor="middle" family="微软雅黑" size="13px" weight="400" font-style="" opacity="1" y="10" transform="rotate(0)"><tspan id="SvgjsTspan1225" dy="16.25" x="35.5"><tspan id="SvgjsTspan1226" style="">null</tspan></tspan></text></g></g><g id="SvgjsG1227" transform="translate(894.7023831881002,376.02899169921847)"><path id="SvgjsPath1228" d="M 0 4Q 0 0 4 0L 146.3749999999999 0Q 150.3749999999999 0 150.3749999999999 4L 150.3749999999999 88.24999999999989Q 150.3749999999999 92.24999999999989 146.3749999999999 92.24999999999989L 4 92.24999999999989Q 0 92.24999999999989 0 88.24999999999989Z" stroke="rgba(33,41,48,1)" stroke-width="2" fill-opacity="1" fill="#ffffff"></path><path id="SvgjsPath1229" d="M 0 30L 150.3749999999999 30M 0 60L 150.3749999999999 60" stroke="rgba(33,41,48,1)" stroke-width="2" fill="none"></path><path id="SvgjsPath1230" d="M 0 0L 150.3749999999999 0L 150.3749999999999 92.24999999999989L 0 92.24999999999989Z" stroke="none" fill="none"></path><g id="SvgjsG1231"><text id="SvgjsText1232" font-family="微软雅黑" text-anchor="middle" font-size="13px" width="131px" fill="#323232" font-weight="700" align="middle" lineHeight="125%" anchor="middle" family="微软雅黑" size="13px" weight="700" font-style="" opacity="1" y="4.375" transform="rotate(0)"><tspan id="SvgjsTspan1233" dy="16.25" x="75.5"><tspan id="SvgjsTspan1234" style="">Object.prototype</tspan></tspan></text></g><g id="SvgjsG1235"><text id="SvgjsText1236" font-family="微软雅黑" text-anchor="start" font-size="13px" width="131px" fill="#323232" font-weight="400" align="middle" lineHeight="125%" anchor="start" family="微软雅黑" size="13px" weight="400" font-style="" opacity="1" y="34.375" transform="rotate(0)"><tspan id="SvgjsTspan1237" dy="16.25" x="10"><tspan id="SvgjsTspan1238" style="">constructor</tspan></tspan></text></g><g id="SvgjsG1239"><text id="SvgjsText1240" font-family="微软雅黑" text-anchor="start" font-size="13px" width="131px" fill="#323232" font-weight="400" align="middle" lineHeight="125%" anchor="start" family="微软雅黑" size="13px" weight="400" font-style="" opacity="1" y="64.375" transform="rotate(0)"><tspan id="SvgjsTspan1241" dy="16.25" x="10"><tspan id="SvgjsTspan1242" style="">__proto__</tspan></tspan></text></g></g><g id="SvgjsG1243"><path id="SvgjsPath1244" d="M827.0083201128273 337.2104492187498L969.8898831881003 337.2104492187498L969.8898831881003 372.42899169921844" stroke="#323232" stroke-width="2" fill="none" marker-end="url(#SvgjsMarker1245)"></path></g><g id="SvgjsG1247"><path id="SvgjsPath1248" d="M1046.0773831881 422.15399169921847L1075.0773831881 422.15399169921847L1075.0773831881 305.74169921874994L829.0445841509131 305.74169921874994" stroke="#323232" stroke-width="2" fill="none" marker-end="url(#SvgjsMarker1249)"></path></g><g id="SvgjsG1251"><path id="SvgjsPath1252" d="M1045.7966214693504 453.27899169921847L1106.5618631779564 453.27899169921847L1106.5618631779564 477.43004932403545" stroke="#323232" stroke-width="2" fill="none" marker-end="url(#SvgjsMarker1253)"></path></g><g id="SvgjsG1255"><path id="SvgjsPath1256" d="M1106.5618631779564 480.0300493240355L1106.5618631779564 451.0300493240355L1106.5618631779564 451.0300493240355L1106.5618631779564 477.43004932403545" stroke="#323232" stroke-width="2" fill="none" marker-end="url(#SvgjsMarker1257)"></path></g><g id="SvgjsG1259" transform="translate(553.8352431897512,1117.2472462459248)"><path id="SvgjsPath1260" d="M 0 4Q 0 0 4 0L 135.62499999999966 0Q 139.62499999999966 0 139.62499999999966 4L 139.62499999999966 86.49999999999989Q 139.62499999999966 90.49999999999989 135.62499999999966 90.49999999999989L 4 90.49999999999989Q 0 90.49999999999989 0 86.49999999999989Z" stroke="rgba(33,41,48,1)" stroke-width="2" fill-opacity="1" fill="#ffffff"></path><path id="SvgjsPath1261" d="M 0 30L 139.62499999999966 30M 0 60L 139.62499999999966 60" stroke="rgba(33,41,48,1)" stroke-width="2" fill="none"></path><path id="SvgjsPath1262" d="M 0 0L 139.62499999999966 0L 139.62499999999966 90.49999999999989L 0 90.49999999999989Z" stroke="none" fill="none"></path><g id="SvgjsG1263"><text id="SvgjsText1264" font-family="微软雅黑" text-anchor="middle" font-size="13px" width="120px" fill="#323232" font-weight="700" align="middle" lineHeight="125%" anchor="middle" family="微软雅黑" size="13px" weight="700" font-style="" opacity="1" y="4.375" transform="rotate(0)"><tspan id="SvgjsTspan1265" dy="16.25" x="70"><tspan id="SvgjsTspan1266" style="">Object(构造函数)</tspan></tspan></text></g><g id="SvgjsG1267"><text id="SvgjsText1268" font-family="微软雅黑" text-anchor="start" font-size="13px" width="120px" fill="#323232" font-weight="400" align="middle" lineHeight="125%" anchor="start" family="微软雅黑" size="13px" weight="400" font-style="" opacity="1" y="34.375" transform="rotate(0)"><tspan id="SvgjsTspan1269" dy="16.25" x="10"><tspan id="SvgjsTspan1270" style="">prototype</tspan></tspan></text></g><g id="SvgjsG1271"><text id="SvgjsText1272" font-family="微软雅黑" text-anchor="start" font-size="13px" width="120px" fill="#323232" font-weight="400" align="middle" lineHeight="125%" anchor="start" family="微软雅黑" size="13px" weight="400" font-style="" opacity="1" y="64.375" transform="rotate(0)"><tspan id="SvgjsTspan1273" dy="16.25" x="10"><tspan id="SvgjsTspan1274" style="">__proto__</tspan></tspan></text></g></g><g id="SvgjsG1275"><path id="SvgjsPath1276" d="M491.9985807318376 1096.7499999999995L522.4169119607944 1096.7499999999995L522.4169119607944 1162.4972462459248L550.2352431897511 1162.4972462459248" stroke="#323232" stroke-width="2" fill="none" marker-end="url(#SvgjsMarker1277)"></path></g><g id="SvgjsG1279"><path id="SvgjsPath1280" d="M694.4602431897508 1162.4972462459248L723.7601412413202 1162.4972462459248L723.7601412413202 1233.6438409236757" stroke="#323232" stroke-width="2" fill="none" marker-end="url(#SvgjsMarker1281)"></path></g><g id="SvgjsG1283"><path id="SvgjsPath1284" d="M794.5726412413201 1282.4938409236756L823.5726412413201 1282.4938409236756L823.5726412413201 1135.4999999999995L697.0216214693506 1135.4999999999995" stroke="#323232" stroke-width="2" fill="none" marker-end="url(#SvgjsMarker1285)"></path></g><g id="SvgjsG1287" transform="translate(787.2705862622512,1363.4050493240352)"><path id="SvgjsPath1288" d="M 0 4Q 0 0 4 0L 66.625 0Q 70.625 0 70.625 4L 70.625 37.25Q 70.625 41.25 66.625 41.25L 4 41.25Q 0 41.25 0 37.25Z" stroke="rgba(33,41,48,1)" stroke-width="2" fill-opacity="1" fill="#ffffff"></path><g id="SvgjsG1289"><text id="SvgjsText1290" font-family="微软雅黑" text-anchor="middle" font-size="13px" width="51px" fill="#323232" font-weight="400" align="middle" lineHeight="125%" anchor="middle" family="微软雅黑" size="13px" weight="400" font-style="" opacity="1" y="10" transform="rotate(0)"><tspan id="SvgjsTspan1291" dy="16.25" x="35.5"><tspan id="SvgjsTspan1292" style="">null</tspan></tspan></text></g></g><g id="SvgjsG1293"><path id="SvgjsPath1294" d="M794.0221649889052 1311.6020140005994L822.5830862622512 1311.6020140005994L822.5830862622512 1359.8050493240353" stroke="#323232" stroke-width="2" fill="none" marker-end="url(#SvgjsMarker1295)"></path></g><g id="SvgjsG1297" transform="translate(744.3273831881003,862.122246245925)"><path id="SvgjsPath1298" d="M 0 4Q 0 0 4 0L 146.3749999999999 0Q 150.3749999999999 0 150.3749999999999 4L 150.3749999999999 88.24999999999989Q 150.3749999999999 92.24999999999989 146.3749999999999 92.24999999999989L 4 92.24999999999989Q 0 92.24999999999989 0 88.24999999999989Z" stroke="rgba(33,41,48,1)" stroke-width="2" fill-opacity="1" fill="#ffffff"></path><path id="SvgjsPath1299" d="M 0 30L 150.3749999999999 30M 0 60L 150.3749999999999 60" stroke="rgba(33,41,48,1)" stroke-width="2" fill="none"></path><path id="SvgjsPath1300" d="M 0 0L 150.3749999999999 0L 150.3749999999999 92.24999999999989L 0 92.24999999999989Z" stroke="none" fill="none"></path><g id="SvgjsG1301"><text id="SvgjsText1302" font-family="微软雅黑" text-anchor="middle" font-size="13px" width="131px" fill="#323232" font-weight="700" align="middle" lineHeight="125%" anchor="middle" family="微软雅黑" size="13px" weight="700" font-style="" opacity="1" y="4.375" transform="rotate(0)"><tspan id="SvgjsTspan1303" dy="16.25" x="75.5"><tspan id="SvgjsTspan1304" style="">Object.prototype</tspan></tspan></text></g><g id="SvgjsG1305"><text id="SvgjsText1306" font-family="微软雅黑" text-anchor="start" font-size="13px" width="131px" fill="#323232" font-weight="400" align="middle" lineHeight="125%" anchor="start" family="微软雅黑" size="13px" weight="400" font-style="" opacity="1" y="34.375" transform="rotate(0)"><tspan id="SvgjsTspan1307" dy="16.25" x="10"><tspan id="SvgjsTspan1308" style="">constructor</tspan></tspan></text></g><g id="SvgjsG1309"><text id="SvgjsText1310" font-family="微软雅黑" text-anchor="start" font-size="13px" width="131px" fill="#323232" font-weight="400" align="middle" lineHeight="125%" anchor="start" family="微软雅黑" size="13px" weight="400" font-style="" opacity="1" y="64.375" transform="rotate(0)"><tspan id="SvgjsTspan1311" dy="16.25" x="10"><tspan id="SvgjsTspan1312" style="">__proto__</tspan></tspan></text></g></g><g id="SvgjsG1313" transform="translate(934.5773831881,989.906591589634)"><path id="SvgjsPath1314" d="M 0 4Q 0 0 4 0L 66.625 0Q 70.625 0 70.625 4L 70.625 37.25Q 70.625 41.25 66.625 41.25L 4 41.25Q 0 41.25 0 37.25Z" stroke="rgba(33,41,48,1)" stroke-width="2" fill-opacity="1" fill="#ffffff"></path><g id="SvgjsG1315"><text id="SvgjsText1316" font-family="微软雅黑" text-anchor="middle" font-size="13px" width="51px" fill="#323232" font-weight="400" align="middle" lineHeight="125%" anchor="middle" family="微软雅黑" size="13px" weight="400" font-style="" opacity="1" y="10" transform="rotate(0)"><tspan id="SvgjsTspan1317" dy="16.25" x="35.5"><tspan id="SvgjsTspan1318" style="">null</tspan></tspan></text></g></g><g id="SvgjsG1319"><path id="SvgjsPath1320" d="M631.5532695950477 831.872246245925L819.5148831881002 831.872246245925L819.5148831881002 858.522246245925" stroke="#323232" stroke-width="2" fill="none" marker-end="url(#SvgjsMarker1321)"></path></g><g id="SvgjsG1323"><path id="SvgjsPath1324" d="M895.7023831881 908.247246245925L924.7023831881 908.247246245925L924.7023831881 799L634.146621469351 799" stroke="#323232" stroke-width="2" fill="none" marker-end="url(#SvgjsMarker1325)"></path></g><g id="SvgjsG1327"><path id="SvgjsPath1328" d="M895.171621469351 940L969.8898831881 940L969.8898831881 986.306591589634" stroke="#323232" stroke-width="2" fill="none" marker-end="url(#SvgjsMarker1329)"></path></g><g id="SvgjsG1331" transform="translate(693.4602431897508,979.906591589634)"><path id="SvgjsPath1332" d="M 0 4Q 0 0 4 0L 135.62499999999966 0Q 139.62499999999966 0 139.62499999999966 4L 139.62499999999966 86.49999999999989Q 139.62499999999966 90.49999999999989 135.62499999999966 90.49999999999989L 4 90.49999999999989Q 0 90.49999999999989 0 86.49999999999989Z" stroke="rgba(33,41,48,1)" stroke-width="2" fill-opacity="1" fill="#ffffff"></path><path id="SvgjsPath1333" d="M 0 30L 139.62499999999966 30M 0 60L 139.62499999999966 60" stroke="rgba(33,41,48,1)" stroke-width="2" fill="none"></path><path id="SvgjsPath1334" d="M 0 0L 139.62499999999966 0L 139.62499999999966 90.49999999999989L 0 90.49999999999989Z" stroke="none" fill="none"></path><g id="SvgjsG1335"><text id="SvgjsText1336" font-family="微软雅黑" text-anchor="middle" font-size="13px" width="120px" fill="#323232" font-weight="700" align="middle" lineHeight="125%" anchor="middle" family="微软雅黑" size="13px" weight="700" font-style="" opacity="1" y="4.375" transform="rotate(0)"><tspan id="SvgjsTspan1337" dy="16.25" x="70"><tspan id="SvgjsTspan1338" style="">Function(构造函数)</tspan></tspan></text></g><g id="SvgjsG1339"><text id="SvgjsText1340" font-family="微软雅黑" text-anchor="start" font-size="13px" width="120px" fill="#323232" font-weight="400" align="middle" lineHeight="125%" anchor="start" family="微软雅黑" size="13px" weight="400" font-style="" opacity="1" y="34.375" transform="rotate(0)"><tspan id="SvgjsTspan1341" dy="16.25" x="10"><tspan id="SvgjsTspan1342" style="">prototype</tspan></tspan></text></g><g id="SvgjsG1343"><text id="SvgjsText1344" font-family="微软雅黑" text-anchor="start" font-size="13px" width="120px" fill="#323232" font-weight="400" align="middle" lineHeight="125%" anchor="start" family="微软雅黑" size="13px" weight="400" font-style="" opacity="1" y="64.375" transform="rotate(0)"><tspan id="SvgjsTspan1345" dy="16.25" x="10"><tspan id="SvgjsTspan1346" style="">__proto__</tspan></tspan></text></g></g><g id="SvgjsG1347"><path id="SvgjsPath1348" d="M631.546621469351 858L662.003432329551 858L662.003432329551 1025.156591589634L689.8602431897508 1025.156591589634" stroke="#323232" stroke-width="2" fill="none" marker-end="url(#SvgjsMarker1349)"></path></g></svg>